<svg width="58" height="52" viewBox="0 0 58 52" fill="none" xmlns="http://www.w3.org/2000/svg">
<path d="M54.375 15.125H3.625C1.62298 15.125 0 13.502 0 11.5V4.25C0 2.24798 1.62298 0.625 3.625 0.625H54.375C56.377 0.625 58 2.24798 58 4.25V11.5C58 13.502 56.377 15.125 54.375 15.125ZM48.9375 5.15625C47.436 5.15625 46.2188 6.37346 46.2188 7.875C46.2188 9.37654 47.436 10.5938 48.9375 10.5938C50.439 10.5938 51.6562 9.37654 51.6562 7.875C51.6562 6.37346 50.439 5.15625 48.9375 5.15625ZM41.6875 5.15625C40.186 5.15625 38.9688 6.37346 38.9688 7.875C38.9688 9.37654 40.186 10.5938 41.6875 10.5938C43.189 10.5938 44.4062 9.37654 44.4062 7.875C44.4062 6.37346 43.189 5.15625 41.6875 5.15625ZM54.375 33.25H3.625C1.62298 33.25 0 31.627 0 29.625V22.375C0 20.373 1.62298 18.75 3.625 18.75H54.375C56.377 18.75 58 20.373 58 22.375V29.625C58 31.627 56.377 33.25 54.375 33.25ZM48.9375 23.2812C47.436 23.2812 46.2188 24.4985 46.2188 26C46.2188 27.5015 47.436 28.7188 48.9375 28.7188C50.439 28.7188 51.6562 27.5015 51.6562 26C51.6562 24.4985 50.439 23.2812 48.9375 23.2812ZM41.6875 23.2812C40.186 23.2812 38.9688 24.4985 38.9688 26C38.9688 27.5015 40.186 28.7188 41.6875 28.7188C43.189 28.7188 44.4062 27.5015 44.4062 26C44.4062 24.4985 43.189 23.2812 41.6875 23.2812ZM54.375 51.375H3.625C1.62298 51.375 0 49.752 0 47.75V40.5C0 38.498 1.62298 36.875 3.625 36.875H54.375C56.377 36.875 58 38.498 58 40.5V47.75C58 49.752 56.377 51.375 54.375 51.375ZM48.9375 41.4062C47.436 41.4062 46.2188 42.6235 46.2188 44.125C46.2188 45.6265 47.436 46.8438 48.9375 46.8438C50.439 46.8438 51.6562 45.6265 51.6562 44.125C51.6562 42.6235 50.439 41.4062 48.9375 41.4062ZM41.6875 41.4062C40.186 41.4062 38.9688 42.6235 38.9688 44.125C38.9688 45.6265 40.186 46.8438 41.6875 46.8438C43.189 46.8438 44.4062 45.6265 44.4062 44.125C44.4062 42.6235 43.189 41.4062 41.6875 41.4062Z" fill="#8D1DDD"/>
</svg>
