<svg width="49" height="54" viewBox="0 0 49 54" fill="none" xmlns="http://www.w3.org/2000/svg">
<path d="M48.6667 7.7143V12.5357C48.6667 16.7846 37.9168 20.25 24.6667 20.25C11.4167 20.25 0.666718 16.7846 0.666718 12.5357V7.7143C0.666718 3.46539 11.4167 0 24.6667 0C37.9168 0 48.6667 3.46539 48.6667 7.7143ZM48.6667 18.5625V29.4107C48.6667 33.6596 37.9168 37.125 24.6667 37.125C11.4167 37.125 0.666718 33.6596 0.666718 29.4107V18.5625C5.82297 22.0581 15.2604 23.6853 24.6667 23.6853C34.073 23.6853 43.5104 22.0581 48.6667 18.5625ZM48.6667 35.4375V46.2857C48.6667 50.5346 37.9168 54 24.6667 54C11.4167 54 0.666718 50.5346 0.666718 46.2857V35.4375C5.82297 38.9331 15.2604 40.5603 24.6667 40.5603C34.073 40.5603 43.5104 38.9331 48.6667 35.4375Z" fill="#8D1DDD"/>
</svg>
