<svg width="59" height="48" viewBox="0 0 59 48" fill="none" xmlns="http://www.w3.org/2000/svg">
<path d="M54.0981 0.692017H4.56861C3.40955 0.692017 2.29796 1.15245 1.47838 1.97203C0.6588 2.79161 0.198364 3.9032 0.198364 5.06227L0.198364 34.1973C0.198364 35.3563 0.6588 36.4679 1.47838 37.2875C2.29796 38.1071 3.40955 38.5675 4.56861 38.5675H26.4199V41.481H10.3956C10.0093 41.481 9.63873 41.6345 9.36554 41.9077C9.09234 42.1809 8.93886 42.5514 8.93886 42.9378V45.8513C8.93886 46.2376 9.09234 46.6082 9.36554 46.8813C9.63873 47.1545 10.0093 47.308 10.3956 47.308H48.2711C48.6575 47.308 49.028 47.1545 49.3012 46.8813C49.5744 46.6082 49.7279 46.2376 49.7279 45.8513V42.9378C49.7279 42.5514 49.5744 42.1809 49.3012 41.9077C49.028 41.6345 48.6575 41.481 48.2711 41.481H32.2469V38.5675H54.0981C55.2572 38.5675 56.3688 38.1071 57.1883 37.2875C58.0079 36.4679 58.4684 35.3563 58.4684 34.1973V5.06227C58.4684 3.9032 58.0079 2.79161 57.1883 1.97203C56.3688 1.15245 55.2572 0.692017 54.0981 0.692017ZM52.6414 32.7405H6.02536V6.51902H52.6414V32.7405Z" fill="url(#paint0_linear_1_95)"/>
<defs>
<linearGradient id="paint0_linear_1_95" x1="1.72287" y1="5.08975" x2="58.555" y2="10.5109" gradientUnits="userSpaceOnUse">
<stop stop-color="#8D1DDD"/>
<stop offset="0.43" stop-color="#831BCD"/>
<stop offset="1" stop-color="#7618B9"/>
</linearGradient>
</defs>
</svg>
