<svg width="24" height="20" viewBox="0 0 24 20" fill="none" xmlns="http://www.w3.org/2000/svg">
<path d="M9.08691 13.4248C9.08691 14.4453 8.55469 16.1152 7.29492 16.1152C6.03516 16.1152 5.50293 14.4453 5.50293 13.4248C5.50293 12.4043 6.03516 10.7344 7.29492 10.7344C8.55469 10.7344 9.08691 12.4043 9.08691 13.4248ZM23.4375 10.959C23.4375 12.5166 23.2812 14.167 22.583 15.5977C20.7324 19.3379 15.6445 19.25 12.002 19.25C8.30078 19.25 2.91016 19.3818 0.986328 15.5977C0.273438 14.1816 0 12.5166 0 10.959C0 8.91309 0.678711 6.97949 2.02637 5.41211C1.77246 4.64063 1.65039 3.83008 1.65039 3.0293C1.65039 1.97949 1.88965 1.45215 2.36328 0.5C4.5752 0.5 5.99121 0.939453 7.67578 2.25781C9.0918 1.9209 10.5469 1.76953 12.0068 1.76953C13.3252 1.76953 14.6533 1.91113 15.9326 2.21875C17.5928 0.915039 19.0088 0.5 21.1963 0.5C21.6748 1.45215 21.9092 1.97949 21.9092 3.0293C21.9092 3.83008 21.7822 4.62598 21.5332 5.38281C22.876 6.96484 23.4375 8.91309 23.4375 10.959ZM20.2979 13.4248C20.2979 11.2813 18.9941 9.3916 16.709 9.3916C15.7861 9.3916 14.9023 9.55762 13.9746 9.68457C13.2471 9.79688 12.5195 9.84082 11.7725 9.84082C11.0303 9.84082 10.3027 9.79688 9.57031 9.68457C8.65723 9.55762 7.76367 9.3916 6.83594 9.3916C4.55078 9.3916 3.24707 11.2813 3.24707 13.4248C3.24707 17.7119 7.17285 18.3711 10.5908 18.3711H12.9443C16.377 18.3711 20.2979 17.7168 20.2979 13.4248ZM16.2646 10.7344C15.0049 10.7344 14.4727 12.4043 14.4727 13.4248C14.4727 14.4453 15.0049 16.1152 16.2646 16.1152C17.5244 16.1152 18.0566 14.4453 18.0566 13.4248C18.0566 12.4043 17.5244 10.7344 16.2646 10.7344Z" fill="#BABABA"/>
</svg>
