<svg width="52" height="58" viewBox="0 0 52 58" fill="none" xmlns="http://www.w3.org/2000/svg">
<path d="M51.5399 40.7812V2.71875C51.5399 1.21211 50.3278 0 48.8212 0H11.6649C5.66101 0 0.789917 4.87109 0.789917 10.875V47.125C0.789917 53.1289 5.66101 58 11.6649 58H48.8212C50.3278 58 51.5399 56.7879 51.5399 55.2812V53.4688C51.5399 52.6191 51.1434 51.8488 50.5317 51.3504C50.0559 49.6059 50.0559 44.6328 50.5317 42.8883C51.1434 42.4012 51.5399 41.6309 51.5399 40.7812ZM15.2899 15.1797C15.2899 14.8059 15.5958 14.5 15.9696 14.5H39.9852C40.3591 14.5 40.6649 14.8059 40.6649 15.1797V17.4453C40.6649 17.8191 40.3591 18.125 39.9852 18.125H15.9696C15.5958 18.125 15.2899 17.8191 15.2899 17.4453V15.1797ZM15.2899 22.4297C15.2899 22.0559 15.5958 21.75 15.9696 21.75H39.9852C40.3591 21.75 40.6649 22.0559 40.6649 22.4297V24.6953C40.6649 25.0691 40.3591 25.375 39.9852 25.375H15.9696C15.5958 25.375 15.2899 25.0691 15.2899 24.6953V22.4297ZM43.9954 50.75H11.6649C9.65984 50.75 8.03992 49.1301 8.03992 47.125C8.03992 45.1312 9.67117 43.5 11.6649 43.5H43.9954C43.7802 45.4371 43.7802 48.8129 43.9954 50.75Z" fill="#8D1DDD"/>
</svg>
