<svg width="24" height="25" viewBox="0 0 24 25" fill="none" xmlns="http://www.w3.org/2000/svg">
<path d="M18 3.5C18.7956 3.5 19.5587 3.81607 20.1213 4.37868C20.6839 4.94129 21 5.70435 21 6.5V18.5C21 19.2956 20.6839 20.0587 20.1213 20.6213C19.5587 21.1839 18.7956 21.5 18 21.5H6C5.20435 21.5 4.44129 21.1839 3.87868 20.6213C3.31607 20.0587 3 19.2956 3 18.5V6.5C3 5.70435 3.31607 4.94129 3.87868 4.37868C4.44129 3.81607 5.20435 3.5 6 3.5H18ZM18 5.5H6C5.73478 5.5 5.48043 5.60536 5.29289 5.79289C5.10536 5.98043 5 6.23478 5 6.5V18.5C5 18.7652 5.10536 19.0196 5.29289 19.2071C5.48043 19.3946 5.73478 19.5 6 19.5H18C18.2652 19.5 18.5196 19.3946 18.7071 19.2071C18.8946 19.0196 19 18.7652 19 18.5V6.5C19 6.23478 18.8946 5.98043 18.7071 5.79289C18.5196 5.60536 18.2652 5.5 18 5.5ZM8 10.5C8.24493 10.5 8.48134 10.59 8.66437 10.7527C8.84741 10.9155 8.96434 11.1397 8.993 11.383L9 11.5V16.5C8.99972 16.7549 8.90212 17 8.72715 17.1854C8.55218 17.3707 8.31305 17.4822 8.05861 17.4972C7.80416 17.5121 7.55362 17.4293 7.35817 17.2657C7.16271 17.1021 7.0371 16.8701 7.007 16.617L7 16.5V11.5C7 11.2348 7.10536 10.9804 7.29289 10.7929C7.48043 10.6054 7.73478 10.5 8 10.5ZM11 9.5C11.2342 9.49996 11.461 9.58213 11.6408 9.73216C11.8206 9.8822 11.9421 10.0906 11.984 10.321C12.1852 10.2043 12.3933 10.0998 12.607 10.008C13.274 9.723 14.273 9.566 15.175 9.849C15.648 9.999 16.123 10.279 16.475 10.756C16.79 11.181 16.96 11.698 16.994 12.279L17 12.5V16.5C16.9997 16.7549 16.9021 17 16.7272 17.1854C16.5522 17.3707 16.313 17.4822 16.0586 17.4972C15.8042 17.5121 15.5536 17.4293 15.3582 17.2657C15.1627 17.1021 15.0371 16.8701 15.007 16.617L15 16.5V12.5C15 12.17 14.92 12.016 14.868 11.945C14.7934 11.8522 14.6905 11.7862 14.575 11.757C14.227 11.647 13.726 11.705 13.393 11.847C12.893 12.061 12.435 12.397 12.123 12.708L12 12.84V16.5C11.9997 16.7549 11.9021 17 11.7272 17.1854C11.5522 17.3707 11.313 17.4822 11.0586 17.4972C10.8042 17.5121 10.5536 17.4293 10.3582 17.2657C10.1627 17.1021 10.0371 16.8701 10.007 16.617L10 16.5V10.5C10 10.2348 10.1054 9.98043 10.2929 9.79289C10.4804 9.60536 10.7348 9.5 11 9.5ZM8 7.5C8.26522 7.5 8.51957 7.60536 8.70711 7.79289C8.89464 7.98043 9 8.23478 9 8.5C9 8.76522 8.89464 9.01957 8.70711 9.20711C8.51957 9.39464 8.26522 9.5 8 9.5C7.73478 9.5 7.48043 9.39464 7.29289 9.20711C7.10536 9.01957 7 8.76522 7 8.5C7 8.23478 7.10536 7.98043 7.29289 7.79289C7.48043 7.60536 7.73478 7.5 8 7.5Z" fill="#BABABA"/>
</svg>
