<svg width="25" height="24" viewBox="0 0 25 24" fill="none" xmlns="http://www.w3.org/2000/svg">
<path d="M22.5 16.9201V19.9201C22.5011 20.1986 22.4441 20.4743 22.3325 20.7294C22.2209 20.9846 22.0573 21.2137 21.8521 21.402C21.6468 21.5902 21.4046 21.7336 21.1407 21.8228C20.8769 21.912 20.5974 21.9452 20.32 21.9201C17.2428 21.5857 14.287 20.5342 11.69 18.8501C9.27382 17.3148 7.22533 15.2663 5.68999 12.8501C3.99997 10.2413 2.94824 7.27109 2.61999 4.1801C2.595 3.90356 2.62787 3.62486 2.71649 3.36172C2.80512 3.09859 2.94756 2.85679 3.13476 2.65172C3.32196 2.44665 3.5498 2.28281 3.80379 2.17062C4.05777 2.05843 4.33233 2.00036 4.60999 2.0001H7.60999C8.0953 1.99532 8.56579 2.16718 8.93376 2.48363C9.30173 2.80008 9.54207 3.23954 9.60999 3.7201C9.73662 4.68016 9.97144 5.62282 10.31 6.5301C10.4445 6.88802 10.4737 7.27701 10.3939 7.65098C10.3141 8.02494 10.1289 8.36821 9.85999 8.6401L8.58999 9.9101C10.0135 12.4136 12.0864 14.4865 14.59 15.9101L15.86 14.6401C16.1319 14.3712 16.4751 14.1859 16.8491 14.1062C17.2231 14.0264 17.6121 14.0556 17.97 14.1901C18.8773 14.5286 19.8199 14.7635 20.78 14.8901C21.2658 14.9586 21.7094 15.2033 22.0265 15.5776C22.3437 15.9519 22.5122 16.4297 22.5 16.9201Z" stroke="#959595" stroke-width="2" stroke-linecap="round" stroke-linejoin="round"/>
</svg>
