<svg width="41" height="58" viewBox="0 0 41 58" fill="none" xmlns="http://www.w3.org/2000/svg">
<path d="M11.7793 51.4693C11.7805 52.1819 11.9912 52.8797 12.3865 53.4733L14.3225 56.3835C14.6532 56.881 15.1018 57.289 15.6283 57.5712C16.1548 57.8534 16.7429 58.0011 17.3403 58.0011H24.3309C24.9283 58.0011 25.5164 57.8534 26.0429 57.5712C26.5694 57.289 27.018 56.881 27.3487 56.3835L29.2847 53.4733C29.6799 52.8796 29.8911 52.1825 29.8919 51.4693L29.8964 47.125H11.7737L11.7793 51.4693ZM0.897522 19.9375C0.897522 24.9638 2.761 29.5494 5.83205 33.0532C7.70346 35.1886 10.6306 39.6496 11.7465 43.4128C11.751 43.4422 11.7544 43.4717 11.7589 43.5011H29.9111C29.9156 43.4717 29.919 43.4434 29.9236 43.4128C31.0394 39.6496 33.9666 35.1886 35.838 33.0532C38.909 29.5494 40.7725 24.9638 40.7725 19.9375C40.7725 8.90504 31.8131 -0.0339844 20.7727 0C9.2169 0.0351172 0.897522 9.39895 0.897522 19.9375ZM20.835 10.875C15.8382 10.875 11.7725 14.9407 11.7725 19.9375C11.7725 20.9389 10.9614 21.75 9.96002 21.75C8.95862 21.75 8.14752 20.9389 8.14752 19.9375C8.14752 12.9412 13.8388 7.25 20.835 7.25C21.8364 7.25 22.6475 8.06109 22.6475 9.0625C22.6475 10.0639 21.8364 10.875 20.835 10.875Z" fill="#8D1DDD"/>
</svg>
