<?xml version="1.0" encoding="UTF-8"?>
<svg id="Layer_2" data-name="Layer 2" xmlns="http://www.w3.org/2000/svg" xmlns:xlink="http://www.w3.org/1999/xlink" viewBox="0 0 438.49 324.79">
  <defs>
    <style>
      .cls-1 {
        fill: url(#_ÂÁ_Ï_ÌÌ_È_ËÂÌÚ_483-2);
      }

      .cls-2 {
        fill: url(#_ÂÁ_Ï_ÌÌ_È_ËÂÌÚ_343-3);
      }

      .cls-3 {
        fill: url(#_ÂÁ_Ï_ÌÌ_È_ËÂÌÚ_343-2);
      }

      .cls-4 {
        fill: url(#_ÂÁ_Ï_ÌÌ_È_ËÂÌÚ_193-2);
      }

      .cls-5 {
        fill: url(#_ÂÁ_Ï_ÌÌ_È_ËÂÌÚ_33);
      }

      .cls-6, .cls-7, .cls-8 {
        fill: #06033e;
      }

      .cls-9 {
        fill: #e8975b;
      }

      .cls-10 {
        fill: #f8359e;
      }

      .cls-11, .cls-12 {
        fill: #fff;
      }

      .cls-13 {
        fill: #0c0a78;
      }

      .cls-14 {
        fill: url(#_ÂÁ_Ï_ÌÌ_È_ËÂÌÚ_33-3);
      }

      .cls-15 {
        fill: url(#_ÂÁ_Ï_ÌÌ_È_ËÂÌÚ_33-5);
      }

      .cls-16 {
        fill: url(#_ÂÁ_Ï_ÌÌ_È_ËÂÌÚ_33-2);
      }

      .cls-17 {
        fill: url(#_ÂÁ_Ï_ÌÌ_È_ËÂÌÚ_33-4);
      }

      .cls-18, .cls-8 {
        opacity: .4;
      }

      .cls-19, .cls-12, .cls-7 {
        opacity: .5;
      }

      .cls-20 {
        fill: url(#_ÂÁ_Ï_ÌÌ_È_ËÂÌÚ_343);
      }

      .cls-21 {
        fill: url(#_ÂÁ_Ï_ÌÌ_È_ËÂÌÚ_483);
      }

      .cls-22 {
        fill: url(#_ÂÁ_Ï_ÌÌ_È_ËÂÌÚ_441);
      }

      .cls-23 {
        fill: url(#_ÂÁ_Ï_ÌÌ_È_ËÂÌÚ_223);
      }

      .cls-24 {
        fill: url(#_ÂÁ_Ï_ÌÌ_È_ËÂÌÚ_113);
      }

      .cls-25 {
        fill: url(#_ÂÁ_Ï_ÌÌ_È_ËÂÌÚ_109);
      }

      .cls-26 {
        fill: url(#_ÂÁ_Ï_ÌÌ_È_ËÂÌÚ_144);
      }

      .cls-27 {
        fill: url(#_ÂÁ_Ï_ÌÌ_È_ËÂÌÚ_199);
      }

      .cls-28 {
        fill: url(#_ÂÁ_Ï_ÌÌ_È_ËÂÌÚ_193);
      }

      .cls-29 {
        fill: #020230;
        opacity: .6;
      }
    </style>
    <linearGradient id="_ÂÁ_Ï_ÌÌ_È_ËÂÌÚ_33" data-name="¡ÂÁ˚ÏˇÌÌ˚È „‡‰ËÂÌÚ 33" x1="405.87" y1="269.37" x2="438.49" y2="269.37" gradientUnits="userSpaceOnUse">
      <stop offset="0" stop-color="#e39a65"/>
      <stop offset="1" stop-color="#e95f8d"/>
    </linearGradient>
    <linearGradient id="_ÂÁ_Ï_ÌÌ_È_ËÂÌÚ_33-2" data-name="¡ÂÁ˚ÏˇÌÌ˚È „‡‰ËÂÌÚ 33" x1="361.22" y1="224.68" x2="416" y2="224.68" xlink:href="#_ÂÁ_Ï_ÌÌ_È_ËÂÌÚ_33"/>
    <linearGradient id="_ÂÁ_Ï_ÌÌ_È_ËÂÌÚ_33-3" data-name="¡ÂÁ˚ÏˇÌÌ˚È „‡‰ËÂÌÚ 33" x1="0" y1="243.03" x2="54.78" y2="243.03" xlink:href="#_ÂÁ_Ï_ÌÌ_È_ËÂÌÚ_33"/>
    <linearGradient id="_ÂÁ_Ï_ÌÌ_È_ËÂÌÚ_33-4" data-name="¡ÂÁ˚ÏˇÌÌ˚È „‡‰ËÂÌÚ 33" x1="63.77" y1="239.51" x2="356.13" y2="239.51" xlink:href="#_ÂÁ_Ï_ÌÌ_È_ËÂÌÚ_33"/>
    <radialGradient id="_ÂÁ_Ï_ÌÌ_È_ËÂÌÚ_113" data-name="¡ÂÁ˚ÏˇÌÌ˚È „‡‰ËÂÌÚ 113" cx="225.26" cy="23.06" fx="225.26" fy="23.06" r="223.3" gradientUnits="userSpaceOnUse">
      <stop offset="0" stop-color="#e39a65"/>
      <stop offset=".47" stop-color="#a92ffb"/>
      <stop offset=".59" stop-color="#881bfa"/>
      <stop offset=".74" stop-color="#6507fa"/>
      <stop offset=".8" stop-color="#0d0c6f"/>
    </radialGradient>
    <radialGradient id="_ÂÁ_Ï_ÌÌ_È_ËÂÌÚ_109" data-name="¡ÂÁ˚ÏˇÌÌ˚È „‡‰ËÂÌÚ 109" cx="88.69" cy="202.38" fx="88.69" fy="202.38" r="244.17" gradientUnits="userSpaceOnUse">
      <stop offset="0" stop-color="#e39a65"/>
      <stop offset=".47" stop-color="#a92ffb"/>
      <stop offset=".57" stop-color="#881bfa"/>
      <stop offset=".68" stop-color="#6507fa"/>
      <stop offset=".74" stop-color="#0d0c6f"/>
    </radialGradient>
    <radialGradient id="_ÂÁ_Ï_ÌÌ_È_ËÂÌÚ_343" data-name="¡ÂÁ˚ÏˇÌÌ˚È „‡‰ËÂÌÚ 343" cx="111.15" cy="153.37" fx="111.15" fy="153.37" r="218.96" gradientUnits="userSpaceOnUse">
      <stop offset="0" stop-color="#e39a65"/>
      <stop offset=".47" stop-color="#a92ffb"/>
      <stop offset=".59" stop-color="#881bfa"/>
      <stop offset=".73" stop-color="#6507fa"/>
      <stop offset="1" stop-color="#3919bb"/>
    </radialGradient>
    <radialGradient id="_ÂÁ_Ï_ÌÌ_È_ËÂÌÚ_343-2" data-name="¡ÂÁ˚ÏˇÌÌ˚È „‡‰ËÂÌÚ 343" cx="165.69" cy="69.64" fx="165.69" fy="69.64" r="223.34" xlink:href="#_ÂÁ_Ï_ÌÌ_È_ËÂÌÚ_343"/>
    <linearGradient id="_ÂÁ_Ï_ÌÌ_È_ËÂÌÚ_441" data-name="¡ÂÁ˚ÏˇÌÌ˚È „‡‰ËÂÌÚ 441" x1="190.24" y1="128.27" x2="369.21" y2="128.27" gradientUnits="userSpaceOnUse">
      <stop offset="0" stop-color="#3919bb"/>
      <stop offset="1" stop-color="#6507fa"/>
    </linearGradient>
    <radialGradient id="_ÂÁ_Ï_ÌÌ_È_ËÂÌÚ_343-3" data-name="¡ÂÁ˚ÏˇÌÌ˚È „‡‰ËÂÌÚ 343" cx="84.16" cy="21.94" fx="84.16" fy="21.94" r="347.85" xlink:href="#_ÂÁ_Ï_ÌÌ_È_ËÂÌÚ_343"/>
    <linearGradient id="_ÂÁ_Ï_ÌÌ_È_ËÂÌÚ_33-5" data-name="¡ÂÁ˚ÏˇÌÌ˚È „‡‰ËÂÌÚ 33" x1="68.22" y1="152.75" x2="145" y2="152.75" xlink:href="#_ÂÁ_Ï_ÌÌ_È_ËÂÌÚ_33"/>
    <radialGradient id="_ÂÁ_Ï_ÌÌ_È_ËÂÌÚ_199" data-name="¡ÂÁ˚ÏˇÌÌ˚È „‡‰ËÂÌÚ 199" cx="75.03" cy="90.12" fx="75.03" fy="90.12" r="165.35" gradientUnits="userSpaceOnUse">
      <stop offset="0" stop-color="#e39a65"/>
      <stop offset=".15" stop-color="#a92ffb"/>
      <stop offset=".41" stop-color="#3919bb"/>
      <stop offset=".93" stop-color="#3919bb"/>
    </radialGradient>
    <linearGradient id="_ÂÁ_Ï_ÌÌ_È_ËÂÌÚ_144" data-name="¡ÂÁ˚ÏˇÌÌ˚È „‡‰ËÂÌÚ 144" x1="77.96" y1="69.64" x2="137.27" y2="69.64" gradientUnits="userSpaceOnUse">
      <stop offset="0" stop-color="#e39a65"/>
      <stop offset=".25" stop-color="#a92ffb"/>
      <stop offset=".56" stop-color="#3919bb"/>
    </linearGradient>
    <linearGradient id="_ÂÁ_Ï_ÌÌ_È_ËÂÌÚ_483" data-name="¡ÂÁ˚ÏˇÌÌ˚È „‡‰ËÂÌÚ 483" x1="83.52" y1="66.62" x2="131.7" y2="66.62" gradientUnits="userSpaceOnUse">
      <stop offset="0" stop-color="#4f1fec"/>
      <stop offset="1" stop-color="#a92ffb"/>
    </linearGradient>
    <linearGradient id="_ÂÁ_Ï_ÌÌ_È_ËÂÌÚ_483-2" data-name="¡ÂÁ˚ÏˇÌÌ˚È „‡‰ËÂÌÚ 483" x1="82.38" x2="130.56" xlink:href="#_ÂÁ_Ï_ÌÌ_È_ËÂÌÚ_483"/>
    <linearGradient id="_ÂÁ_Ï_ÌÌ_È_ËÂÌÚ_193" data-name="¡ÂÁ˚ÏˇÌÌ˚È „‡‰ËÂÌÚ 193" x1="83.52" y1="60.27" x2="144.27" y2="60.27" gradientUnits="userSpaceOnUse">
      <stop offset="0" stop-color="#131060"/>
      <stop offset=".19" stop-color="#140f62"/>
      <stop offset=".28" stop-color="#190f6a"/>
      <stop offset=".36" stop-color="#220f77"/>
      <stop offset=".42" stop-color="#2e0f8a"/>
      <stop offset=".48" stop-color="#3d0ea3"/>
      <stop offset=".54" stop-color="#510ec1"/>
      <stop offset=".58" stop-color="#670de5"/>
      <stop offset=".61" stop-color="#740df8"/>
      <stop offset=".62" stop-color="#7a14ef"/>
      <stop offset=".68" stop-color="#9b3bc2"/>
      <stop offset=".75" stop-color="#b75c9d"/>
      <stop offset=".81" stop-color="#cc7680"/>
      <stop offset=".88" stop-color="#db886b"/>
      <stop offset=".94" stop-color="#e4935f"/>
      <stop offset="1" stop-color="#e8975b"/>
    </linearGradient>
    <radialGradient id="_ÂÁ_Ï_ÌÌ_È_ËÂÌÚ_223" data-name="¡ÂÁ˚ÏˇÌÌ˚È „‡‰ËÂÌÚ 223" cx="70.55" cy="52.86" fx="70.55" fy="52.86" r="108.16" gradientUnits="userSpaceOnUse">
      <stop offset="0" stop-color="#e39a65"/>
      <stop offset=".25" stop-color="#a92ffb"/>
      <stop offset=".74" stop-color="#3919bb"/>
    </radialGradient>
    <linearGradient id="_ÂÁ_Ï_ÌÌ_È_ËÂÌÚ_193-2" data-name="¡ÂÁ˚ÏˇÌÌ˚È „‡‰ËÂÌÚ 193" x1="103.8" y1="79.88" x2="112.2" y2="79.88" xlink:href="#_ÂÁ_Ï_ÌÌ_È_ËÂÌÚ_193"/>
  </defs>
  <g id="_ÎÓÈ_1" data-name="—ÎÓÈ_1">
    <path class="cls-5" d="M422.18,278.96c-1.2,0-2.41-.31-3.48-.93l-11.74-6.78c-.68-.39-1.09-1.1-1.09-1.88s.41-1.49,1.09-1.88l11.74-6.78c2.15-1.24,4.82-1.24,6.96,0l11.74,6.78c.68,.39,1.09,1.1,1.09,1.88s-.41,1.49-1.09,1.88l-11.74,6.78c-1.07,.62-2.28,.93-3.48,.93Zm0-17.32c-.88,0-1.76,.23-2.55,.68l-11.74,6.78c-.14,.08-.16,.2-.16,.27s.02,.19,.16,.27l11.74,6.78h0c1.57,.91,3.53,.91,5.1,0l11.74-6.78c.14-.08,.16-.2,.16-.27s-.02-.19-.16-.27l-11.74-6.78c-.79-.45-1.67-.68-2.55-.68Z"/>
    <path class="cls-16" d="M388.61,240.51c-1.96,0-3.91-.5-5.66-1.51l-20.2-11.66c-.96-.55-1.54-1.55-1.54-2.66s.57-2.1,1.54-2.66l20.2-11.66c3.49-2.01,7.82-2.02,11.31,0l20.2,11.66c.96,.55,1.54,1.55,1.54,2.66s-.57,2.1-1.53,2.66l-20.2,11.66c-1.74,1.01-3.7,1.51-5.66,1.51Zm-4.73-3.12c2.92,1.68,6.54,1.68,9.45,0l20.2-11.66c.54-.32,.6-.84,.6-1.05s-.06-.73-.6-1.05l-20.2-11.66c-2.92-1.68-6.54-1.68-9.45,0l-20.2,11.66c-.54,.32-.6,.84-.6,1.05s.06,.73,.6,1.05l20.2,11.66Z"/>
    <path class="cls-14" d="M27.39,258.86c-1.96,0-3.91-.5-5.66-1.51L1.54,245.69c-.96-.56-1.54-1.55-1.54-2.66s.57-2.1,1.54-2.66l20.2-11.66c3.49-2.02,7.82-2.02,11.31,0l20.2,11.66c.96,.55,1.54,1.55,1.54,2.66s-.57,2.1-1.54,2.66l-20.2,11.66c-1.74,1.01-3.7,1.51-5.66,1.51Zm0-29.8c-1.63,0-3.27,.42-4.73,1.26l-20.2,11.66c-.54,.32-.6,.84-.6,1.05s.06,.73,.6,1.05l20.2,11.66h0c2.92,1.68,6.54,1.68,9.45,0l20.2-11.66c.55-.32,.6-.84,.6-1.05s-.06-.73-.6-1.05l-20.2-11.66c-1.46-.84-3.09-1.26-4.73-1.26Z"/>
    <g>
      <path class="cls-29" d="M231.94,309.73L87.5,226.35c-2.11-1.22-1.84-3.34,.59-4.74l92.7-53.52c2.43-1.4,6.11-1.56,8.21-.34l144.43,83.39c2.11,1.22,1.84,3.34-.59,4.74l-92.7,53.52c-2.43,1.4-6.11,1.56-8.21,.34Z"/>
      <path class="cls-17" d="M235.24,324.79c-1.69,0-3.31-.35-4.54-1.07h0L65.86,228.55c-1.35-.78-2.09-1.9-2.09-3.16,0-1.45,1.01-2.86,2.76-3.87l112.36-65.83c3.08-1.78,7.61-1.95,10.31-.39l164.84,95.17c1.35,.78,2.09,1.9,2.09,3.16,0,1.45-1.01,2.85-2.76,3.87l-112.36,65.83c-1.67,.96-3.77,1.46-5.76,1.46Zm-50.56-168.68c-1.69,0-3.48,.41-4.85,1.2l-112.36,65.83c-1.15,.67-1.83,1.51-1.83,2.26s.63,1.24,1.16,1.54l164.84,95.17h0c2.1,1.22,5.97,1.04,8.44-.39l112.36-65.83c1.15-.67,1.83-1.51,1.83-2.26s-.63-1.24-1.16-1.54l-164.84-95.17c-.94-.54-2.23-.81-3.59-.81Z"/>
      <path class="cls-24" d="M371.8,111.33L227.94,28.28c-.99-.57-2.02-.69-2.94-.42h0s0,0,0,0c0,0,0,0-.01,0l-2.66,.93,.94,.22c-.38,.45-.68,1-.88,1.65l-32.53,105.63c-.81,2.62,.37,5.8,2.64,7.11l143.86,83.06c.35,.2,.7,.34,1.06,.43l-.36,.78,2.54-.89h0c1.04-.42,1.9-1.35,2.31-2.69l32.53-105.63c.81-2.62-.37-5.8-2.64-7.11Z"/>
      <path class="cls-25" d="M331.2,230.4l.05,.06-142.1-82.04c-2.09-1.21-5.74-1.06-8.16,.34l-91.81,53.01-3.06-1.17,.86,4.3h0c.11,.64,.57,1.25,1.38,1.72l143.41,82.8c2.09,1.21,5.74,1.06,8.16-.34l92.04-53.14c1.14-.66,1.79-1.47,1.95-2.27h0s.88-4.17,.88-4.17l-3.61,.92Z"/>
      <path class="cls-20" d="M231.94,285.62L87.5,202.24c-2.11-1.22-1.84-3.34,.59-4.74l92.7-53.52c2.43-1.4,6.11-1.56,8.21-.34l144.43,83.39c2.11,1.22,1.84,3.34-.59,4.74l-92.7,53.52c-2.43,1.4-6.11,1.56-8.21,.34Z"/>
      <path class="cls-11" d="M332.84,230.64l-92.7,53.52c-2.43,1.4-6.11,1.56-8.21,.34L87.5,201.11c-.72-.41-1.14-.94-1.31-1.5-.28,.97,.13,1.94,1.31,2.62l144.43,83.39c2.11,1.22,5.78,1.06,8.21-.34l92.7-53.52c1.6-.93,2.24-2.16,1.9-3.24-.22,.75-.84,1.51-1.9,2.12Z"/>
      <g class="cls-18">
        <path class="cls-6" d="M156.4,188.7l-4.88-2.82c-.39-.23-.34-.62,.11-.88l5.76-3.32c.45-.26,1.14-.29,1.53-.06l4.88,2.82c.39,.23,.34,.62-.11,.88l-5.76,3.32c-.45,.26-1.14,.29-1.53,.06Z"/>
        <path class="cls-6" d="M163.93,193.05l-4.88-2.82c-.39-.23-.34-.62,.11-.88l5.76-3.32c.45-.26,1.14-.29,1.53-.06l4.88,2.82c.39,.23,.34,.62-.11,.88l-5.76,3.32c-.45,.26-1.14,.29-1.53,.06Z"/>
        <path class="cls-6" d="M171.46,197.4l-4.88-2.82c-.39-.23-.34-.62,.11-.88l5.76-3.32c.45-.26,1.14-.29,1.53-.06l4.88,2.82c.39,.23,.34,.62-.11,.88l-5.76,3.32c-.45,.26-1.14,.29-1.53,.06Z"/>
        <path class="cls-6" d="M181.87,193.81l-4.88-2.82c-.39-.23-.34-.62,.11-.88l4.83-2.79c.45-.26,1.14-.29,1.53-.06l4.88,2.82c.39,.23,.34,.62-.11,.88l-4.83,2.79c-.45,.26-1.14,.29-1.53,.06Z"/>
        <path class="cls-6" d="M189.4,198.16l-4.88-2.82c-.39-.23-.34-.62,.11-.88l4.83-2.79c.45-.26,1.14-.29,1.53-.06l4.88,2.82c.39,.23,.34,.62-.11,.88l-4.83,2.79c-.45,.26-1.14,.29-1.53,.06Z"/>
        <path class="cls-6" d="M196.93,202.5l-4.88-2.82c-.39-.23-.34-.62,.11-.88l4.83-2.79c.45-.26,1.14-.29,1.53-.06l4.88,2.82c.39,.23,.34,.62-.11,.88l-4.83,2.79c-.45,.26-1.14,.29-1.53,.06Z"/>
        <path class="cls-6" d="M204.46,206.85l-4.88-2.82c-.39-.23-.34-.62,.11-.88l4.83-2.79c.45-.26,1.14-.29,1.53-.06l4.88,2.82c.39,.23,.34,.62-.11,.88l-4.83,2.79c-.45,.26-1.14,.29-1.53,.06Z"/>
        <path class="cls-6" d="M211.99,211.2l-4.88-2.82c-.39-.23-.34-.62,.11-.88l4.83-2.79c.45-.26,1.14-.29,1.53-.06l4.88,2.82c.39,.23,.34,.62-.11,.88l-4.83,2.79c-.45,.26-1.14,.29-1.53,.06Z"/>
        <path class="cls-6" d="M219.52,215.55l-4.88-2.82c-.39-.23-.34-.62,.11-.88l4.83-2.79c.45-.26,1.14-.29,1.53-.06l4.88,2.82c.39,.23,.34,.62-.11,.88l-4.83,2.79c-.45,.26-1.14,.29-1.53,.06Z"/>
        <path class="cls-6" d="M227.05,219.89l-4.88-2.82c-.39-.23-.34-.62,.11-.88l4.83-2.79c.45-.26,1.14-.29,1.53-.06l4.88,2.82c.39,.23,.34,.62-.11,.88l-4.83,2.79c-.45,.26-1.14,.29-1.53,.06Z"/>
        <path class="cls-6" d="M234.58,224.24l-4.88-2.82c-.39-.23-.34-.62,.11-.88l4.83-2.79c.45-.26,1.14-.29,1.53-.06l4.88,2.82c.39,.23,.34,.62-.11,.88l-4.83,2.79c-.45,.26-1.14,.29-1.53,.06Z"/>
        <path class="cls-6" d="M242.11,228.59l-4.88-2.82c-.39-.23-.34-.62,.11-.88l4.83-2.79c.45-.26,1.14-.29,1.53-.06l4.88,2.82c.39,.23,.34,.62-.11,.88l-4.83,2.79c-.45,.26-1.14,.29-1.53,.06Z"/>
        <path class="cls-6" d="M249.64,232.94l-4.88-2.82c-.39-.23-.34-.62,.11-.88l4.83-2.79c.45-.26,1.14-.29,1.53-.06l4.88,2.82c.39,.23,.34,.62-.11,.88l-4.83,2.79c-.45,.26-1.14,.29-1.53,.06Z"/>
        <path class="cls-6" d="M192.97,191.75l-4.88-2.82c-.39-.23-.34-.62,.11-.88l4.83-2.79c.45-.26,1.14-.29,1.53-.06l4.88,2.82c.39,.23,.34,.62-.11,.88l-4.83,2.79c-.45,.26-1.14,.29-1.53,.06Z"/>
        <path class="cls-6" d="M185.32,187.34l-4.88-2.82c-.39-.23-.34-.62,.11-.88l4.83-2.79c.45-.26,1.14-.29,1.53-.06l4.88,2.82c.39,.23,.34,.62-.11,.88l-4.83,2.79c-.45,.26-1.14,.29-1.53,.06Z"/>
        <path class="cls-6" d="M177.67,182.92l-10.5-6.06c-.39-.23-.34-.62,.11-.88l4.83-2.79c.45-.26,1.14-.29,1.53-.06l10.5,6.06c.39,.23,.34,.62-.11,.88l-4.83,2.79c-.45,.26-1.14,.29-1.53,.06Z"/>
        <path class="cls-6" d="M183.02,177.54l-8.52-4.92c-.39-.23-.34-.62,.11-.88l4.83-2.79c.45-.26,1.14-.29,1.53-.06l8.52,4.92c.39,.23,.34,.62-.11,.88l-4.83,2.79c-.45,.26-1.14,.29-1.53,.06Z"/>
        <path class="cls-6" d="M200.5,196.1l-4.88-2.82c-.39-.23-.34-.62,.11-.88l4.83-2.79c.45-.26,1.14-.29,1.53-.06l4.88,2.82c.39,.23,.34,.62-.11,.88l-4.83,2.79c-.45,.26-1.14,.29-1.53,.06Z"/>
        <path class="cls-6" d="M208.03,200.45l-4.88-2.82c-.39-.23-.34-.62,.11-.88l4.83-2.79c.45-.26,1.14-.29,1.53-.06l4.88,2.82c.39,.23,.34,.62-.11,.88l-4.83,2.79c-.45,.26-1.14,.29-1.53,.06Z"/>
        <path class="cls-6" d="M215.56,204.79l-4.88-2.82c-.39-.23-.34-.62,.11-.88l4.83-2.79c.45-.26,1.14-.29,1.53-.06l4.88,2.82c.39,.23,.34,.62-.11,.88l-4.83,2.79c-.45,.26-1.14,.29-1.53,.06Z"/>
        <path class="cls-6" d="M223.09,209.14l-4.88-2.82c-.39-.23-.34-.62,.11-.88l4.83-2.79c.45-.26,1.14-.29,1.53-.06l4.88,2.82c.39,.23,.34,.62-.11,.88l-4.83,2.79c-.45,.26-1.14,.29-1.53,.06Z"/>
        <path class="cls-6" d="M230.62,213.49l-4.88-2.82c-.39-.23-.34-.62,.11-.88l4.83-2.79c.45-.26,1.14-.29,1.53-.06l4.88,2.82c.39,.23,.34,.62-.11,.88l-4.83,2.79c-.45,.26-1.14,.29-1.53,.06Z"/>
        <path class="cls-6" d="M238.15,217.84l-4.88-2.82c-.39-.23-.34-.62,.11-.88l4.83-2.79c.45-.26,1.14-.29,1.53-.06l4.88,2.82c.39,.23,.34,.62-.11,.88l-4.83,2.79c-.45,.26-1.14,.29-1.53,.06Z"/>
        <path class="cls-6" d="M245.68,222.18l-4.88-2.82c-.39-.23-.34-.62,.11-.88l4.83-2.79c.45-.26,1.14-.29,1.53-.06l4.88,2.82c.39,.23,.34,.62-.11,.88l-4.83,2.79c-.45,.26-1.14,.29-1.53,.06Z"/>
        <path class="cls-6" d="M253.21,226.53l-4.88-2.82c-.39-.23-.34-.62,.11-.88l4.83-2.79c.45-.26,1.14-.29,1.53-.06l4.88,2.82c.39,.23,.34,.62-.11,.88l-4.83,2.79c-.45,.26-1.14,.29-1.53,.06Z"/>
        <path class="cls-6" d="M260.74,230.88l-4.88-2.82c-.39-.23-.34-.62,.11-.88l4.83-2.79c.45-.26,1.14-.29,1.53-.06l4.88,2.82c.39,.23,.34,.62-.11,.88l-4.83,2.79c-.45,.26-1.14,.29-1.53,.06Z"/>
        <path class="cls-6" d="M274.13,238.61l-10.64-6.14c-.39-.23-.34-.62,.11-.88l4.83-2.79c.45-.26,1.14-.29,1.53-.06l10.64,6.14c.39,.23,.34,.62-.11,.88l-4.83,2.79c-.45,.26-1.14,.29-1.53,.06Z"/>
        <path class="cls-6" d="M288.79,230.14l-8.98-5.18c-.39-.23-.34-.62,.11-.88l4.83-2.79c.45-.26,1.14-.29,1.53-.06l8.98,5.18c.39,.23,.34,.62-.11,.88l-4.83,2.79c-.45,.26-1.14,.29-1.53,.06Z"/>
        <path class="cls-6" d="M213.68,195.25l-4.88-2.82c-.39-.23-.34-.62,.11-.88l4.83-2.79c.45-.26,1.14-.29,1.53-.06l4.88,2.82c.39,.23,.34,.62-.11,.88l-4.83,2.79c-.45,.26-1.14,.29-1.53,.06Z"/>
        <path class="cls-6" d="M205.97,190.79l-4.88-2.82c-.39-.23-.34-.62,.11-.88l4.83-2.79c.45-.26,1.14-.29,1.53-.06l4.88,2.82c.39,.23,.34,.62-.11,.88l-4.83,2.79c-.45,.26-1.14,.29-1.53,.06Z"/>
        <path class="cls-6" d="M198.25,186.34l-4.88-2.82c-.39-.23-.34-.62,.11-.88l4.83-2.79c.45-.26,1.14-.29,1.53-.06l4.88,2.82c.39,.23,.34,.62-.11,.88l-4.83,2.79c-.45,.26-1.14,.29-1.53,.06Z"/>
        <path class="cls-6" d="M190.53,181.88l-4.88-2.82c-.39-.23-.34-.62,.11-.88l4.83-2.79c.45-.26,1.14-.29,1.53-.06l4.88,2.82c.39,.23,.34,.62-.11,.88l-4.83,2.79c-.45,.26-1.14,.29-1.53,.06Z"/>
        <path class="cls-6" d="M221.21,199.6l-4.88-2.82c-.39-.23-.34-.62,.11-.88l4.83-2.79c.45-.26,1.14-.29,1.53-.06l4.88,2.82c.39,.23,.34,.62-.11,.88l-4.83,2.79c-.45,.26-1.14,.29-1.53,.06Z"/>
        <path class="cls-6" d="M228.74,203.94l-4.88-2.82c-.39-.23-.34-.62,.11-.88l4.83-2.79c.45-.26,1.14-.29,1.53-.06l4.88,2.82c.39,.23,.34,.62-.11,.88l-4.83,2.79c-.45,.26-1.14,.29-1.53,.06Z"/>
        <path class="cls-6" d="M236.28,208.29l-4.88-2.82c-.39-.23-.34-.62,.11-.88l4.83-2.79c.45-.26,1.14-.29,1.53-.06l4.88,2.82c.39,.23,.34,.62-.11,.88l-4.83,2.79c-.45,.26-1.14,.29-1.53,.06Z"/>
        <path class="cls-6" d="M243.81,212.64l-4.88-2.82c-.39-.23-.34-.62,.11-.88l4.83-2.79c.45-.26,1.14-.29,1.53-.06l4.88,2.82c.39,.23,.34,.62-.11,.88l-4.83,2.79c-.45,.26-1.14,.29-1.53,.06Z"/>
        <path class="cls-6" d="M251.34,216.99l-4.88-2.82c-.39-.23-.34-.62,.11-.88l4.83-2.79c.45-.26,1.14-.29,1.53-.06l4.88,2.82c.39,.23,.34,.62-.11,.88l-4.83,2.79c-.45,.26-1.14,.29-1.53,.06Z"/>
        <path class="cls-6" d="M258.87,221.33l-4.88-2.82c-.39-.23-.34-.62,.11-.88l4.83-2.79c.45-.26,1.14-.29,1.53-.06l4.88,2.82c.39,.23,.34,.62-.11,.88l-4.83,2.79c-.45,.26-1.14,.29-1.53,.06Z"/>
        <path class="cls-6" d="M266.4,225.68l-4.88-2.82c-.39-.23-.34-.62,.11-.88l4.83-2.79c.45-.26,1.14-.29,1.53-.06l4.88,2.82c.39,.23,.34,.62-.11,.88l-4.83,2.79c-.45,.26-1.14,.29-1.53,.06Z"/>
        <path class="cls-6" d="M273.93,230.03l-4.88-2.82c-.39-.23-.34-.62,.11-.88l4.83-2.79c.45-.26,1.14-.29,1.53-.06l4.88,2.82c.39,.23,.34,.62-.11,.88l-4.83,2.79c-.45,.26-1.14,.29-1.53,.06Z"/>
        <path class="cls-6" d="M281.46,234.38l-4.88-2.82c-.39-.23-.34-.62,.11-.88l4.83-2.79c.45-.26,1.14-.29,1.53-.06l4.88,2.82c.39,.23,.34,.62-.11,.88l-4.83,2.79c-.45,.26-1.14,.29-1.53,.06Z"/>
        <path class="cls-6" d="M209.72,184.49l-4.88-2.82c-.39-.23-.34-.62,.11-.88l4.83-2.79c.45-.26,1.14-.29,1.53-.06l4.88,2.82c.39,.23,.34,.62-.11,.88l-4.83,2.79c-.45,.26-1.14,.29-1.53,.06Z"/>
        <path class="cls-6" d="M202.23,180.17l-4.88-2.82c-.39-.23-.34-.62,.11-.88l4.83-2.79c.45-.26,1.14-.29,1.53-.06l4.88,2.82c.39,.23,.34,.62-.11,.88l-4.83,2.79c-.45,.26-1.14,.29-1.53,.06Z"/>
        <path class="cls-6" d="M194.73,175.84l-4.88-2.82c-.39-.23-.34-.62,.11-.88l4.83-2.79c.45-.26,1.14-.29,1.53-.06l4.88,2.82c.39,.23,.34,.62-.11,.88l-4.83,2.79c-.45,.26-1.14,.29-1.53,.06Z"/>
        <path class="cls-6" d="M187.24,171.52l-4.88-2.82c-.39-.23-.34-.62,.11-.88l4.83-2.79c.45-.26,1.14-.29,1.53-.06l4.88,2.82c.39,.23,.34,.62-.11,.88l-4.83,2.79c-.45,.26-1.14,.29-1.53,.06Z"/>
        <path class="cls-6" d="M194.95,167.07l-4.88-2.82c-.39-.23-.34-.62,.11-.88l1.6-.92c.45-.26,1.14-.29,1.53-.06l4.88,2.82c.39,.23,.34,.62-.11,.88l-1.6,.92c-.45,.26-1.14,.29-1.53,.06Z"/>
        <path class="cls-6" d="M204.72,172.71l-4.88-2.82c-.39-.23-.34-.62,.11-.88l1.6-.92c.45-.26,1.14-.29,1.53-.06l4.88,2.82c.39,.23,.34,.62-.11,.88l-1.6,.92c-.45,.26-1.14,.29-1.53,.06Z"/>
        <path class="cls-6" d="M212.19,177.02l-4.88-2.82c-.39-.23-.34-.62,.11-.88l1.6-.92c.45-.26,1.14-.29,1.53-.06l4.88,2.82c.39,.23,.34,.62-.11,.88l-1.6,.92c-.45,.26-1.14,.29-1.53,.06Z"/>
        <path class="cls-6" d="M219.65,181.33l-4.88-2.82c-.39-.23-.34-.62,.11-.88l1.6-.92c.45-.26,1.14-.29,1.53-.06l4.88,2.82c.39,.23,.34,.62-.11,.88l-1.6,.92c-.45,.26-1.14,.29-1.53,.06Z"/>
        <path class="cls-6" d="M227.11,185.64l-4.88-2.82c-.39-.23-.34-.62,.11-.88l1.6-.92c.45-.26,1.14-.29,1.53-.06l4.88,2.82c.39,.23,.34,.62-.11,.88l-1.6,.92c-.45,.26-1.14,.29-1.53,.06Z"/>
        <path class="cls-6" d="M268.77,209.69l-4.88-2.82c-.39-.23-.34-.62,.11-.88l1.6-.92c.45-.26,1.14-.29,1.53-.06l4.88,2.82c.39,.23,.34,.62-.11,.88l-1.6,.92c-.45,.26-1.14,.29-1.53,.06Z"/>
        <path class="cls-6" d="M276.23,214l-4.88-2.82c-.39-.23-.34-.62,.11-.88l1.6-.92c.45-.26,1.14-.29,1.53-.06l4.88,2.82c.39,.23,.34,.62-.11,.88l-1.6,.92c-.45,.26-1.14,.29-1.53,.06Z"/>
        <path class="cls-6" d="M283.69,218.3l-4.88-2.82c-.39-.23-.34-.62,.11-.88l1.6-.92c.45-.26,1.14-.29,1.53-.06l4.88,2.82c.39,.23,.34,.62-.11,.88l-1.6,.92c-.45,.26-1.14,.29-1.53,.06Z"/>
        <path class="cls-6" d="M291.15,222.61l-4.88-2.82c-.39-.23-.34-.62,.11-.88l1.6-.92c.45-.26,1.14-.29,1.53-.06l4.88,2.82c.39,.23,.34,.62-.11,.88l-1.6,.92c-.45,.26-1.14,.29-1.53,.06Z"/>
        <path class="cls-6" d="M217.25,188.84l-4.88-2.82c-.39-.23-.34-.62,.11-.88l4.83-2.79c.45-.26,1.14-.29,1.53-.06l4.88,2.82c.39,.23,.34,.62-.11,.88l-4.83,2.79c-.45,.26-1.14,.29-1.53,.06Z"/>
        <path class="cls-6" d="M224.78,193.19l-4.88-2.82c-.39-.23-.34-.62,.11-.88l4.83-2.79c.45-.26,1.14-.29,1.53-.06l4.88,2.82c.39,.23,.34,.62-.11,.88l-4.83,2.79c-.45,.26-1.14,.29-1.53,.06Z"/>
        <path class="cls-6" d="M232.31,197.54l-4.88-2.82c-.39-.23-.34-.62,.11-.88l4.83-2.79c.45-.26,1.14-.29,1.53-.06l4.88,2.82c.39,.23,.34,.62-.11,.88l-4.83,2.79c-.45,.26-1.14,.29-1.53,.06Z"/>
        <path class="cls-6" d="M239.84,201.88l-4.88-2.82c-.39-.23-.34-.62,.11-.88l4.83-2.79c.45-.26,1.14-.29,1.53-.06l4.88,2.82c.39,.23,.34,.62-.11,.88l-4.83,2.79c-.45,.26-1.14,.29-1.53,.06Z"/>
        <path class="cls-6" d="M247.37,206.23l-4.88-2.82c-.39-.23-.34-.62,.11-.88l4.83-2.79c.45-.26,1.14-.29,1.53-.06l4.88,2.82c.39,.23,.34,.62-.11,.88l-4.83,2.79c-.45,.26-1.14,.29-1.53,.06Z"/>
        <path class="cls-6" d="M254.9,210.58l-4.88-2.82c-.39-.23-.34-.62,.11-.88l4.83-2.79c.45-.26,1.14-.29,1.53-.06l4.88,2.82c.39,.23,.34,.62-.11,.88l-4.83,2.79c-.45,.26-1.14,.29-1.53,.06Z"/>
        <path class="cls-6" d="M262.43,214.93l-4.88-2.82c-.39-.23-.34-.62,.11-.88l4.83-2.79c.45-.26,1.14-.29,1.53-.06l4.88,2.82c.39,.23,.34,.62-.11,.88l-4.83,2.79c-.45,.26-1.14,.29-1.53,.06Z"/>
        <path class="cls-6" d="M269.96,219.27l-4.88-2.82c-.39-.23-.34-.62,.11-.88l4.83-2.79c.45-.26,1.14-.29,1.53-.06l4.88,2.82c.39,.23,.34,.62-.11,.88l-4.83,2.79c-.45,.26-1.14,.29-1.53,.06Z"/>
        <path class="cls-6" d="M277.49,223.62l-4.88-2.82c-.39-.23-.34-.62,.11-.88l4.83-2.79c.45-.26,1.14-.29,1.53-.06l4.88,2.82c.39,.23,.34,.62-.11,.88l-4.83,2.79c-.45,.26-1.14,.29-1.53,.06Z"/>
        <path class="cls-6" d="M174.2,189.38l-14.36-8.29c-.39-.23-.34-.62,.11-.88l4.83-2.79c.45-.26,1.14-.29,1.53-.06l14.36,8.29c.39,.23,.34,.62-.11,.88l-4.83,2.79c-.45,.26-1.14,.29-1.53,.06Z"/>
        <path class="cls-6" d="M266.71,242.79l-14.36-8.29c-.39-.23-.34-.62,.11-.88l4.83-2.79c.45-.26,1.14-.29,1.53-.06l14.36,8.29c.39,.23,.34,.62-.11,.88l-4.83,2.79c-.45,.26-1.14,.29-1.53,.06Z"/>
        <path class="cls-6" d="M236.59,235.01l-4.88-2.82c-.39-.23-.34-.62,.11-.88l5.76-3.32c.45-.26,1.14-.29,1.53-.06l4.88,2.82c.39,.23,.34,.62-.11,.88l-5.76,3.32c-.45,.26-1.14,.29-1.53,.06Z"/>
        <path class="cls-6" d="M181.91,203.43l-7.8-4.5c-.39-.23-.34-.62,.11-.88l5.76-3.32c.45-.26,1.14-.29,1.53-.06l7.8,4.5c.39,.23,.34,.62-.11,.88l-5.76,3.32c-.45,.26-1.14,.29-1.53,.06Z"/>
        <path class="cls-6" d="M229.34,230.82l-7.8-4.5c-.39-.23-.34-.62,.11-.88l5.76-3.32c.45-.26,1.14-.29,1.53-.06l7.8,4.5c.39,.23,.34,.62-.11,.88l-5.76,3.32c-.45,.26-1.14,.29-1.53,.06Z"/>
        <path class="cls-6" d="M192.77,209.71l-7.8-4.5c-.39-.23-.34-.62,.11-.88l5.76-3.32c.45-.26,1.14-.29,1.53-.06l7.8,4.5c.39,.23,.34,.62-.11,.88l-5.76,3.32c-.45,.26-1.14,.29-1.53,.06Z"/>
        <path class="cls-6" d="M192.42,200.97l33.9,19.58c.42,.24,.42,.64,0,.88l-5.87,3.39c-.42,.24-1.1,.24-1.52,0l-33.9-19.57,7.39-4.27Z"/>
        <path class="cls-6" d="M257.64,242.89l5.43,3.14c.32,.19,.28,.51-.09,.72l-2.35,1.36c-.37,.21-.93,.24-1.25,.05l-5.43-3.14c-.32-.19-.28-.51,.09-.72l2.35-1.36c.37-.21,.93-.24,1.25-.05Z"/>
        <path class="cls-6" d="M250.05,238.51l5.43,3.14c.32,.19,.28,.51-.09,.72l-2.35,1.36c-.37,.21-.93,.24-1.25,.05l-5.43-3.14c-.32-.19-.28-.51,.09-.72l2.35-1.36c.37-.21,.93-.24,1.25-.05Z"/>
        <path class="cls-6" d="M242.52,234.16l5.43,3.14c.32,.19,.28,.51-.09,.72l-2.35,1.36c-.37,.21-.93,.24-1.25,.05l-5.43-3.14c-.32-.19-.28-.51,.09-.72l2.35-1.36c.37-.21,.93-.24,1.25-.05Z"/>
        <path class="cls-6" d="M254.21,236.1l5.43,3.14c.32,.19,.28,.51-.09,.72l-2.35,1.36c-.37,.21-.93,.24-1.25,.05l-5.43-3.14c-.32-.19-.28-.51,.09-.72l2.35-1.36c.37-.21,.93-.24,1.25-.05Z"/>
      </g>
      <g class="cls-18">
        <path class="cls-6" d="M156.4,188.7l-4.88-2.82c-.39-.23-.34-.62,.11-.88l5.76-3.32c.45-.26,1.14-.29,1.53-.06l4.88,2.82c.39,.23,.34,.62-.11,.88l-5.76,3.32c-.45,.26-1.14,.29-1.53,.06Z"/>
        <path class="cls-6" d="M163.93,193.05l-4.88-2.82c-.39-.23-.34-.62,.11-.88l5.76-3.32c.45-.26,1.14-.29,1.53-.06l4.88,2.82c.39,.23,.34,.62-.11,.88l-5.76,3.32c-.45,.26-1.14,.29-1.53,.06Z"/>
        <path class="cls-6" d="M171.46,197.4l-4.88-2.82c-.39-.23-.34-.62,.11-.88l5.76-3.32c.45-.26,1.14-.29,1.53-.06l4.88,2.82c.39,.23,.34,.62-.11,.88l-5.76,3.32c-.45,.26-1.14,.29-1.53,.06Z"/>
        <path class="cls-6" d="M181.87,193.81l-4.88-2.82c-.39-.23-.34-.62,.11-.88l4.83-2.79c.45-.26,1.14-.29,1.53-.06l4.88,2.82c.39,.23,.34,.62-.11,.88l-4.83,2.79c-.45,.26-1.14,.29-1.53,.06Z"/>
        <path class="cls-6" d="M189.4,198.16l-4.88-2.82c-.39-.23-.34-.62,.11-.88l4.83-2.79c.45-.26,1.14-.29,1.53-.06l4.88,2.82c.39,.23,.34,.62-.11,.88l-4.83,2.79c-.45,.26-1.14,.29-1.53,.06Z"/>
        <path class="cls-6" d="M196.93,202.5l-4.88-2.82c-.39-.23-.34-.62,.11-.88l4.83-2.79c.45-.26,1.14-.29,1.53-.06l4.88,2.82c.39,.23,.34,.62-.11,.88l-4.83,2.79c-.45,.26-1.14,.29-1.53,.06Z"/>
        <path class="cls-6" d="M204.46,206.85l-4.88-2.82c-.39-.23-.34-.62,.11-.88l4.83-2.79c.45-.26,1.14-.29,1.53-.06l4.88,2.82c.39,.23,.34,.62-.11,.88l-4.83,2.79c-.45,.26-1.14,.29-1.53,.06Z"/>
        <path class="cls-6" d="M211.99,211.2l-4.88-2.82c-.39-.23-.34-.62,.11-.88l4.83-2.79c.45-.26,1.14-.29,1.53-.06l4.88,2.82c.39,.23,.34,.62-.11,.88l-4.83,2.79c-.45,.26-1.14,.29-1.53,.06Z"/>
        <path class="cls-6" d="M219.52,215.55l-4.88-2.82c-.39-.23-.34-.62,.11-.88l4.83-2.79c.45-.26,1.14-.29,1.53-.06l4.88,2.82c.39,.23,.34,.62-.11,.88l-4.83,2.79c-.45,.26-1.14,.29-1.53,.06Z"/>
        <path class="cls-6" d="M227.05,219.89l-4.88-2.82c-.39-.23-.34-.62,.11-.88l4.83-2.79c.45-.26,1.14-.29,1.53-.06l4.88,2.82c.39,.23,.34,.62-.11,.88l-4.83,2.79c-.45,.26-1.14,.29-1.53,.06Z"/>
        <path class="cls-6" d="M234.58,224.24l-4.88-2.82c-.39-.23-.34-.62,.11-.88l4.83-2.79c.45-.26,1.14-.29,1.53-.06l4.88,2.82c.39,.23,.34,.62-.11,.88l-4.83,2.79c-.45,.26-1.14,.29-1.53,.06Z"/>
        <path class="cls-6" d="M242.11,228.59l-4.88-2.82c-.39-.23-.34-.62,.11-.88l4.83-2.79c.45-.26,1.14-.29,1.53-.06l4.88,2.82c.39,.23,.34,.62-.11,.88l-4.83,2.79c-.45,.26-1.14,.29-1.53,.06Z"/>
        <path class="cls-6" d="M249.64,232.94l-4.88-2.82c-.39-.23-.34-.62,.11-.88l4.83-2.79c.45-.26,1.14-.29,1.53-.06l4.88,2.82c.39,.23,.34,.62-.11,.88l-4.83,2.79c-.45,.26-1.14,.29-1.53,.06Z"/>
        <path class="cls-6" d="M192.97,191.75l-4.88-2.82c-.39-.23-.34-.62,.11-.88l4.83-2.79c.45-.26,1.14-.29,1.53-.06l4.88,2.82c.39,.23,.34,.62-.11,.88l-4.83,2.79c-.45,.26-1.14,.29-1.53,.06Z"/>
        <path class="cls-6" d="M185.32,187.34l-4.88-2.82c-.39-.23-.34-.62,.11-.88l4.83-2.79c.45-.26,1.14-.29,1.53-.06l4.88,2.82c.39,.23,.34,.62-.11,.88l-4.83,2.79c-.45,.26-1.14,.29-1.53,.06Z"/>
        <path class="cls-6" d="M177.67,182.92l-10.5-6.06c-.39-.23-.34-.62,.11-.88l4.83-2.79c.45-.26,1.14-.29,1.53-.06l10.5,6.06c.39,.23,.34,.62-.11,.88l-4.83,2.79c-.45,.26-1.14,.29-1.53,.06Z"/>
        <path class="cls-6" d="M183.02,177.54l-8.52-4.92c-.39-.23-.34-.62,.11-.88l4.83-2.79c.45-.26,1.14-.29,1.53-.06l8.52,4.92c.39,.23,.34,.62-.11,.88l-4.83,2.79c-.45,.26-1.14,.29-1.53,.06Z"/>
        <path class="cls-6" d="M200.5,196.1l-4.88-2.82c-.39-.23-.34-.62,.11-.88l4.83-2.79c.45-.26,1.14-.29,1.53-.06l4.88,2.82c.39,.23,.34,.62-.11,.88l-4.83,2.79c-.45,.26-1.14,.29-1.53,.06Z"/>
        <path class="cls-6" d="M208.03,200.45l-4.88-2.82c-.39-.23-.34-.62,.11-.88l4.83-2.79c.45-.26,1.14-.29,1.53-.06l4.88,2.82c.39,.23,.34,.62-.11,.88l-4.83,2.79c-.45,.26-1.14,.29-1.53,.06Z"/>
        <path class="cls-6" d="M215.56,204.79l-4.88-2.82c-.39-.23-.34-.62,.11-.88l4.83-2.79c.45-.26,1.14-.29,1.53-.06l4.88,2.82c.39,.23,.34,.62-.11,.88l-4.83,2.79c-.45,.26-1.14,.29-1.53,.06Z"/>
        <path class="cls-6" d="M223.09,209.14l-4.88-2.82c-.39-.23-.34-.62,.11-.88l4.83-2.79c.45-.26,1.14-.29,1.53-.06l4.88,2.82c.39,.23,.34,.62-.11,.88l-4.83,2.79c-.45,.26-1.14,.29-1.53,.06Z"/>
        <path class="cls-6" d="M230.62,213.49l-4.88-2.82c-.39-.23-.34-.62,.11-.88l4.83-2.79c.45-.26,1.14-.29,1.53-.06l4.88,2.82c.39,.23,.34,.62-.11,.88l-4.83,2.79c-.45,.26-1.14,.29-1.53,.06Z"/>
        <path class="cls-6" d="M238.15,217.84l-4.88-2.82c-.39-.23-.34-.62,.11-.88l4.83-2.79c.45-.26,1.14-.29,1.53-.06l4.88,2.82c.39,.23,.34,.62-.11,.88l-4.83,2.79c-.45,.26-1.14,.29-1.53,.06Z"/>
        <path class="cls-6" d="M245.68,222.18l-4.88-2.82c-.39-.23-.34-.62,.11-.88l4.83-2.79c.45-.26,1.14-.29,1.53-.06l4.88,2.82c.39,.23,.34,.62-.11,.88l-4.83,2.79c-.45,.26-1.14,.29-1.53,.06Z"/>
        <path class="cls-6" d="M253.21,226.53l-4.88-2.82c-.39-.23-.34-.62,.11-.88l4.83-2.79c.45-.26,1.14-.29,1.53-.06l4.88,2.82c.39,.23,.34,.62-.11,.88l-4.83,2.79c-.45,.26-1.14,.29-1.53,.06Z"/>
        <path class="cls-6" d="M260.74,230.88l-4.88-2.82c-.39-.23-.34-.62,.11-.88l4.83-2.79c.45-.26,1.14-.29,1.53-.06l4.88,2.82c.39,.23,.34,.62-.11,.88l-4.83,2.79c-.45,.26-1.14,.29-1.53,.06Z"/>
        <path class="cls-6" d="M274.13,238.61l-10.64-6.14c-.39-.23-.34-.62,.11-.88l4.83-2.79c.45-.26,1.14-.29,1.53-.06l10.64,6.14c.39,.23,.34,.62-.11,.88l-4.83,2.79c-.45,.26-1.14,.29-1.53,.06Z"/>
        <path class="cls-6" d="M288.79,230.14l-8.98-5.18c-.39-.23-.34-.62,.11-.88l4.83-2.79c.45-.26,1.14-.29,1.53-.06l8.98,5.18c.39,.23,.34,.62-.11,.88l-4.83,2.79c-.45,.26-1.14,.29-1.53,.06Z"/>
        <path class="cls-6" d="M213.68,195.25l-4.88-2.82c-.39-.23-.34-.62,.11-.88l4.83-2.79c.45-.26,1.14-.29,1.53-.06l4.88,2.82c.39,.23,.34,.62-.11,.88l-4.83,2.79c-.45,.26-1.14,.29-1.53,.06Z"/>
        <path class="cls-6" d="M205.97,190.79l-4.88-2.82c-.39-.23-.34-.62,.11-.88l4.83-2.79c.45-.26,1.14-.29,1.53-.06l4.88,2.82c.39,.23,.34,.62-.11,.88l-4.83,2.79c-.45,.26-1.14,.29-1.53,.06Z"/>
        <path class="cls-6" d="M198.25,186.34l-4.88-2.82c-.39-.23-.34-.62,.11-.88l4.83-2.79c.45-.26,1.14-.29,1.53-.06l4.88,2.82c.39,.23,.34,.62-.11,.88l-4.83,2.79c-.45,.26-1.14,.29-1.53,.06Z"/>
        <path class="cls-6" d="M190.53,181.88l-4.88-2.82c-.39-.23-.34-.62,.11-.88l4.83-2.79c.45-.26,1.14-.29,1.53-.06l4.88,2.82c.39,.23,.34,.62-.11,.88l-4.83,2.79c-.45,.26-1.14,.29-1.53,.06Z"/>
        <path class="cls-6" d="M221.21,199.6l-4.88-2.82c-.39-.23-.34-.62,.11-.88l4.83-2.79c.45-.26,1.14-.29,1.53-.06l4.88,2.82c.39,.23,.34,.62-.11,.88l-4.83,2.79c-.45,.26-1.14,.29-1.53,.06Z"/>
        <path class="cls-6" d="M228.74,203.94l-4.88-2.82c-.39-.23-.34-.62,.11-.88l4.83-2.79c.45-.26,1.14-.29,1.53-.06l4.88,2.82c.39,.23,.34,.62-.11,.88l-4.83,2.79c-.45,.26-1.14,.29-1.53,.06Z"/>
        <path class="cls-6" d="M236.28,208.29l-4.88-2.82c-.39-.23-.34-.62,.11-.88l4.83-2.79c.45-.26,1.14-.29,1.53-.06l4.88,2.82c.39,.23,.34,.62-.11,.88l-4.83,2.79c-.45,.26-1.14,.29-1.53,.06Z"/>
        <path class="cls-6" d="M243.81,212.64l-4.88-2.82c-.39-.23-.34-.62,.11-.88l4.83-2.79c.45-.26,1.14-.29,1.53-.06l4.88,2.82c.39,.23,.34,.62-.11,.88l-4.83,2.79c-.45,.26-1.14,.29-1.53,.06Z"/>
        <path class="cls-6" d="M251.34,216.99l-4.88-2.82c-.39-.23-.34-.62,.11-.88l4.83-2.79c.45-.26,1.14-.29,1.53-.06l4.88,2.82c.39,.23,.34,.62-.11,.88l-4.83,2.79c-.45,.26-1.14,.29-1.53,.06Z"/>
        <path class="cls-6" d="M258.87,221.33l-4.88-2.82c-.39-.23-.34-.62,.11-.88l4.83-2.79c.45-.26,1.14-.29,1.53-.06l4.88,2.82c.39,.23,.34,.62-.11,.88l-4.83,2.79c-.45,.26-1.14,.29-1.53,.06Z"/>
        <path class="cls-6" d="M266.4,225.68l-4.88-2.82c-.39-.23-.34-.62,.11-.88l4.83-2.79c.45-.26,1.14-.29,1.53-.06l4.88,2.82c.39,.23,.34,.62-.11,.88l-4.83,2.79c-.45,.26-1.14,.29-1.53,.06Z"/>
        <path class="cls-6" d="M273.93,230.03l-4.88-2.82c-.39-.23-.34-.62,.11-.88l4.83-2.79c.45-.26,1.14-.29,1.53-.06l4.88,2.82c.39,.23,.34,.62-.11,.88l-4.83,2.79c-.45,.26-1.14,.29-1.53,.06Z"/>
        <path class="cls-6" d="M281.46,234.38l-4.88-2.82c-.39-.23-.34-.62,.11-.88l4.83-2.79c.45-.26,1.14-.29,1.53-.06l4.88,2.82c.39,.23,.34,.62-.11,.88l-4.83,2.79c-.45,.26-1.14,.29-1.53,.06Z"/>
        <path class="cls-6" d="M209.72,184.49l-4.88-2.82c-.39-.23-.34-.62,.11-.88l4.83-2.79c.45-.26,1.14-.29,1.53-.06l4.88,2.82c.39,.23,.34,.62-.11,.88l-4.83,2.79c-.45,.26-1.14,.29-1.53,.06Z"/>
        <path class="cls-6" d="M202.23,180.17l-4.88-2.82c-.39-.23-.34-.62,.11-.88l4.83-2.79c.45-.26,1.14-.29,1.53-.06l4.88,2.82c.39,.23,.34,.62-.11,.88l-4.83,2.79c-.45,.26-1.14,.29-1.53,.06Z"/>
        <path class="cls-6" d="M194.73,175.84l-4.88-2.82c-.39-.23-.34-.62,.11-.88l4.83-2.79c.45-.26,1.14-.29,1.53-.06l4.88,2.82c.39,.23,.34,.62-.11,.88l-4.83,2.79c-.45,.26-1.14,.29-1.53,.06Z"/>
        <path class="cls-6" d="M187.24,171.52l-4.88-2.82c-.39-.23-.34-.62,.11-.88l4.83-2.79c.45-.26,1.14-.29,1.53-.06l4.88,2.82c.39,.23,.34,.62-.11,.88l-4.83,2.79c-.45,.26-1.14,.29-1.53,.06Z"/>
        <path class="cls-6" d="M194.95,167.07l-4.88-2.82c-.39-.23-.34-.62,.11-.88l1.6-.92c.45-.26,1.14-.29,1.53-.06l4.88,2.82c.39,.23,.34,.62-.11,.88l-1.6,.92c-.45,.26-1.14,.29-1.53,.06Z"/>
        <path class="cls-6" d="M204.72,172.71l-4.88-2.82c-.39-.23-.34-.62,.11-.88l1.6-.92c.45-.26,1.14-.29,1.53-.06l4.88,2.82c.39,.23,.34,.62-.11,.88l-1.6,.92c-.45,.26-1.14,.29-1.53,.06Z"/>
        <path class="cls-6" d="M212.19,177.02l-4.88-2.82c-.39-.23-.34-.62,.11-.88l1.6-.92c.45-.26,1.14-.29,1.53-.06l4.88,2.82c.39,.23,.34,.62-.11,.88l-1.6,.92c-.45,.26-1.14,.29-1.53,.06Z"/>
        <path class="cls-6" d="M219.65,181.33l-4.88-2.82c-.39-.23-.34-.62,.11-.88l1.6-.92c.45-.26,1.14-.29,1.53-.06l4.88,2.82c.39,.23,.34,.62-.11,.88l-1.6,.92c-.45,.26-1.14,.29-1.53,.06Z"/>
        <path class="cls-6" d="M227.11,185.64l-4.88-2.82c-.39-.23-.34-.62,.11-.88l1.6-.92c.45-.26,1.14-.29,1.53-.06l4.88,2.82c.39,.23,.34,.62-.11,.88l-1.6,.92c-.45,.26-1.14,.29-1.53,.06Z"/>
        <path class="cls-6" d="M268.77,209.69l-4.88-2.82c-.39-.23-.34-.62,.11-.88l1.6-.92c.45-.26,1.14-.29,1.53-.06l4.88,2.82c.39,.23,.34,.62-.11,.88l-1.6,.92c-.45,.26-1.14,.29-1.53,.06Z"/>
        <path class="cls-6" d="M276.23,214l-4.88-2.82c-.39-.23-.34-.62,.11-.88l1.6-.92c.45-.26,1.14-.29,1.53-.06l4.88,2.82c.39,.23,.34,.62-.11,.88l-1.6,.92c-.45,.26-1.14,.29-1.53,.06Z"/>
        <path class="cls-6" d="M283.69,218.3l-4.88-2.82c-.39-.23-.34-.62,.11-.88l1.6-.92c.45-.26,1.14-.29,1.53-.06l4.88,2.82c.39,.23,.34,.62-.11,.88l-1.6,.92c-.45,.26-1.14,.29-1.53,.06Z"/>
        <path class="cls-6" d="M291.15,222.61l-4.88-2.82c-.39-.23-.34-.62,.11-.88l1.6-.92c.45-.26,1.14-.29,1.53-.06l4.88,2.82c.39,.23,.34,.62-.11,.88l-1.6,.92c-.45,.26-1.14,.29-1.53,.06Z"/>
        <path class="cls-6" d="M217.25,188.84l-4.88-2.82c-.39-.23-.34-.62,.11-.88l4.83-2.79c.45-.26,1.14-.29,1.53-.06l4.88,2.82c.39,.23,.34,.62-.11,.88l-4.83,2.79c-.45,.26-1.14,.29-1.53,.06Z"/>
        <path class="cls-6" d="M224.78,193.19l-4.88-2.82c-.39-.23-.34-.62,.11-.88l4.83-2.79c.45-.26,1.14-.29,1.53-.06l4.88,2.82c.39,.23,.34,.62-.11,.88l-4.83,2.79c-.45,.26-1.14,.29-1.53,.06Z"/>
        <path class="cls-6" d="M232.31,197.54l-4.88-2.82c-.39-.23-.34-.62,.11-.88l4.83-2.79c.45-.26,1.14-.29,1.53-.06l4.88,2.82c.39,.23,.34,.62-.11,.88l-4.83,2.79c-.45,.26-1.14,.29-1.53,.06Z"/>
        <path class="cls-6" d="M239.84,201.88l-4.88-2.82c-.39-.23-.34-.62,.11-.88l4.83-2.79c.45-.26,1.14-.29,1.53-.06l4.88,2.82c.39,.23,.34,.62-.11,.88l-4.83,2.79c-.45,.26-1.14,.29-1.53,.06Z"/>
        <path class="cls-6" d="M247.37,206.23l-4.88-2.82c-.39-.23-.34-.62,.11-.88l4.83-2.79c.45-.26,1.14-.29,1.53-.06l4.88,2.82c.39,.23,.34,.62-.11,.88l-4.83,2.79c-.45,.26-1.14,.29-1.53,.06Z"/>
        <path class="cls-6" d="M254.9,210.58l-4.88-2.82c-.39-.23-.34-.62,.11-.88l4.83-2.79c.45-.26,1.14-.29,1.53-.06l4.88,2.82c.39,.23,.34,.62-.11,.88l-4.83,2.79c-.45,.26-1.14,.29-1.53,.06Z"/>
        <path class="cls-6" d="M262.43,214.93l-4.88-2.82c-.39-.23-.34-.62,.11-.88l4.83-2.79c.45-.26,1.14-.29,1.53-.06l4.88,2.82c.39,.23,.34,.62-.11,.88l-4.83,2.79c-.45,.26-1.14,.29-1.53,.06Z"/>
        <path class="cls-6" d="M269.96,219.27l-4.88-2.82c-.39-.23-.34-.62,.11-.88l4.83-2.79c.45-.26,1.14-.29,1.53-.06l4.88,2.82c.39,.23,.34,.62-.11,.88l-4.83,2.79c-.45,.26-1.14,.29-1.53,.06Z"/>
        <path class="cls-6" d="M277.49,223.62l-4.88-2.82c-.39-.23-.34-.62,.11-.88l4.83-2.79c.45-.26,1.14-.29,1.53-.06l4.88,2.82c.39,.23,.34,.62-.11,.88l-4.83,2.79c-.45,.26-1.14,.29-1.53,.06Z"/>
        <path class="cls-6" d="M174.2,189.38l-14.36-8.29c-.39-.23-.34-.62,.11-.88l4.83-2.79c.45-.26,1.14-.29,1.53-.06l14.36,8.29c.39,.23,.34,.62-.11,.88l-4.83,2.79c-.45,.26-1.14,.29-1.53,.06Z"/>
        <path class="cls-6" d="M266.71,242.79l-14.36-8.29c-.39-.23-.34-.62,.11-.88l4.83-2.79c.45-.26,1.14-.29,1.53-.06l14.36,8.29c.39,.23,.34,.62-.11,.88l-4.83,2.79c-.45,.26-1.14,.29-1.53,.06Z"/>
        <path class="cls-6" d="M236.59,235.01l-4.88-2.82c-.39-.23-.34-.62,.11-.88l5.76-3.32c.45-.26,1.14-.29,1.53-.06l4.88,2.82c.39,.23,.34,.62-.11,.88l-5.76,3.32c-.45,.26-1.14,.29-1.53,.06Z"/>
        <path class="cls-6" d="M181.91,203.43l-7.8-4.5c-.39-.23-.34-.62,.11-.88l5.76-3.32c.45-.26,1.14-.29,1.53-.06l7.8,4.5c.39,.23,.34,.62-.11,.88l-5.76,3.32c-.45,.26-1.14,.29-1.53,.06Z"/>
        <path class="cls-6" d="M229.34,230.82l-7.8-4.5c-.39-.23-.34-.62,.11-.88l5.76-3.32c.45-.26,1.14-.29,1.53-.06l7.8,4.5c.39,.23,.34,.62-.11,.88l-5.76,3.32c-.45,.26-1.14,.29-1.53,.06Z"/>
        <path class="cls-6" d="M192.77,209.71l-7.8-4.5c-.39-.23-.34-.62,.11-.88l5.76-3.32c.45-.26,1.14-.29,1.53-.06l7.8,4.5c.39,.23,.34,.62-.11,.88l-5.76,3.32c-.45,.26-1.14,.29-1.53,.06Z"/>
        <path class="cls-6" d="M192.42,200.97l33.9,19.58c.42,.24,.42,.64,0,.88l-5.87,3.39c-.42,.24-1.1,.24-1.52,0l-33.9-19.57,7.39-4.27Z"/>
        <path class="cls-6" d="M257.64,242.89l5.43,3.14c.32,.19,.28,.51-.09,.72l-2.35,1.36c-.37,.21-.93,.24-1.25,.05l-5.43-3.14c-.32-.19-.28-.51,.09-.72l2.35-1.36c.37-.21,.93-.24,1.25-.05Z"/>
        <path class="cls-6" d="M250.05,238.51l5.43,3.14c.32,.19,.28,.51-.09,.72l-2.35,1.36c-.37,.21-.93,.24-1.25,.05l-5.43-3.14c-.32-.19-.28-.51,.09-.72l2.35-1.36c.37-.21,.93-.24,1.25-.05Z"/>
        <path class="cls-6" d="M242.52,234.16l5.43,3.14c.32,.19,.28,.51-.09,.72l-2.35,1.36c-.37,.21-.93,.24-1.25,.05l-5.43-3.14c-.32-.19-.28-.51,.09-.72l2.35-1.36c.37-.21,.93-.24,1.25-.05Z"/>
        <path class="cls-6" d="M254.21,236.1l5.43,3.14c.32,.19,.28,.51-.09,.72l-2.35,1.36c-.37,.21-.93,.24-1.25,.05l-5.43-3.14c-.32-.19-.28-.51,.09-.72l2.35-1.36c.37-.21,.93-.24,1.25-.05Z"/>
      </g>
      <path class="cls-3" d="M333.9,227.31l-143.86-83.06c-2.26-1.31-3.44-4.49-2.64-7.11L219.94,31.51c.81-2.62,3.29-3.68,5.56-2.38l143.86,83.06c2.26,1.31,3.44,4.49,2.64,7.11l-32.53,105.63c-.81,2.62-3.29,3.68-5.56,2.38Z"/>
      <path class="cls-22" d="M332.54,223.61l-139.54-80.63c-2.16-1.25-3.29-4.3-2.52-6.8l31.1-100.98c.77-2.51,3.15-3.53,5.32-2.28l139.54,80.63c2.16,1.25,3.29,4.3,2.52,6.8l-31.1,100.98c-.77,2.51-3.15,3.53-5.32,2.28Z"/>
      <path class="cls-8" d="M332.54,223.61l-139.54-80.63c-2.16-1.25-3.29-4.3-2.52-6.8l31.1-100.98c.77-2.51,3.15-3.53,5.32-2.28l139.54,80.63c2.16,1.25,3.29,4.3,2.52,6.8l-31.1,100.98c-.77,2.51-3.15,3.53-5.32,2.28Z"/>
      <path class="cls-8" d="M332.54,223.61l-139.54-80.63c-2.16-1.25-3.29-4.3-2.52-6.8l31.1-100.98c.77-2.51,3.15-3.53,5.32-2.28l139.54,80.63c2.16,1.25,3.29,4.3,2.52,6.8l-31.1,100.98c-.77,2.51-3.15,3.53-5.32,2.28Z"/>
      <path class="cls-7" d="M325.05,192.75l-94.46-54.54c-1.49-.86-2.26-2.95-1.73-4.67l21.36-69.36c.53-1.72,2.16-2.42,3.65-1.56l94.46,54.54c1.49,.86,2.26,2.95,1.73,4.67l-21.36,69.36c-.53,1.72-2.16,2.42-3.65,1.56Z"/>
      <path class="cls-2" d="M312.29,194.42l-94.46-54.54c-1.49-.86-2.26-2.95-1.73-4.67l21.36-69.36c.53-1.72,2.16-2.42,3.65-1.56l94.46,54.54c1.49,.86,2.26,2.95,1.73,4.67l-21.36,69.36c-.53,1.72-2.16,2.42-3.65,1.56Z"/>
      <g class="cls-19">
        <path class="cls-6" d="M312.29,194.42l-94.46-54.54c-1.49-.86-2.26-2.95-1.73-4.67l21.36-69.36c.53-1.72,2.16-2.42,3.65-1.56l94.46,54.54c1.49,.86,2.26,2.95,1.73,4.67l-21.36,69.36c-.53,1.72-2.16,2.42-3.65,1.56Z"/>
      </g>
      <path class="cls-11" d="M335.56,118.84l-94.46-54.54c-.93-.54-1.92-.46-2.66,.09,.45-.01,.91,.09,1.36,.35l94.46,54.54c1.49,.86,2.26,2.95,1.73,4.67l-21.36,69.36c-.2,.64-.55,1.14-.99,1.47,1.01-.03,1.92-.72,2.28-1.91l21.36-69.36c.53-1.72-.25-3.81-1.73-4.67Z"/>
      <path class="cls-8" d="M193.15,251.06c-1.3,0-2.55-.27-3.5-.82h0s-37.85-21.85-37.85-21.85c-1-.58-1.55-1.41-1.55-2.33,0-1.07,.76-2.13,2.09-2.89l19.48-11.25c2.38-1.37,5.87-1.51,7.96-.31l37.84,21.85c1,.58,1.55,1.41,1.56,2.33,0,1.07-.76,2.13-2.09,2.89l-19.48,11.25c-1.29,.75-2.91,1.13-4.46,1.13Zm-16.86-39.16c-1.37,0-2.82,.33-3.93,.97l-19.48,11.25c-.98,.57-1.54,1.28-1.54,1.95s.55,1.12,1.01,1.38l37.85,21.85c1.72,.99,4.86,.85,6.86-.31l19.48-11.25c.98-.57,1.54-1.27,1.54-1.95s-.55-1.12-1.01-1.38l-37.84-21.85c-.77-.44-1.82-.66-2.94-.66Z"/>
    </g>
    <g>
      <g>
        <path class="cls-11" d="M264.11,100.69l-5.84-3.37c-.54-.31-.83-1.06-.65-1.68h0c.18-.61,.77-.86,1.31-.55l5.84,3.37c.54,.31,.83,1.06,.65,1.68h0c-.18,.61-.77,.86-1.31,.55Z"/>
        <path class="cls-11" d="M278.02,108.72l-8.61-4.97c-.54-.31-.83-1.06-.65-1.68h0c.18-.61,.77-.86,1.31-.55l8.61,4.97c.54,.31,.83,1.06,.65,1.68h0c-.18,.61-.77,.86-1.31,.55Z"/>
        <path class="cls-11" d="M252.33,126.69l-5.84-3.37c-.54-.31-.83-1.06-.65-1.68h0c.18-.61,.77-.86,1.31-.55l5.84,3.37c.54,.31,.83,1.06,.65,1.68h0c-.18,.61-.77,.86-1.31,.55Z"/>
        <path class="cls-11" d="M264.73,133.85l-8.61-4.97c-.54-.31-.83-1.06-.65-1.68h0c.18-.61,.77-.86,1.31-.55l8.61,4.97c.54,.31,.83,1.06,.65,1.68h0c-.18,.61-.77,.86-1.31,.55Z"/>
        <path class="cls-11" d="M246.62,96.06l-3.65-2.11c-.54-.31-.83-1.06-.65-1.68h0c.18-.61,.77-.86,1.31-.55l3.65,2.11c.54,.31,.83,1.06,.65,1.68h0c-.18,.61-.77,.86-1.31,.55Z"/>
        <path class="cls-11" d="M257.59,107.86l-11.15-6.44c-.54-.31-.83-1.06-.65-1.68h0c.18-.61,.77-.86,1.31-.55l11.15,6.44c.54,.31,.83,1.06,.65,1.68h0c-.18,.61-.77,.86-1.31,.55Z"/>
        <path class="cls-11" d="M247.31,112.86l-3.65-2.11c-.54-.31-.83-1.06-.65-1.68h0c.18-.61,.77-.86,1.31-.55l3.65,2.11c.54,.31,.83,1.06,.65,1.68h0c-.18,.61-.77,.86-1.31,.55Z"/>
        <path class="cls-11" d="M266.08,145.56l-9.74-5.63c-.54-.31-.83-1.06-.65-1.68h0c.18-.61,.77-.86,1.31-.55l9.74,5.63c.54,.31,.83,1.06,.65,1.68h0c-.18,.61-.77,.86-1.31,.55Z"/>
        <path class="cls-11" d="M243.22,121.43l-2.34-1.35c-.54-.31-.83-1.06-.65-1.68h0c.18-.61,.77-.86,1.31-.55l2.34,1.35c.54,.31,.83,1.06,.65,1.68h0c-.18,.61-.77,.86-1.31,.55Z"/>
        <path class="cls-11" d="M241.01,131.08l-2.91-1.68c-.54-.31-.83-1.06-.65-1.68h0c.18-.61,.77-.86,1.31-.55l2.91,1.68c.54,.31,.83,1.06,.65,1.68h0c-.18,.61-.77,.86-1.31,.55Z"/>
        <path class="cls-11" d="M252.32,137.61l-7.67-4.43c-.54-.31-.83-1.06-.65-1.68h0c.18-.61,.77-.86,1.31-.55l7.67,4.43c.54,.31,.83,1.06,.65,1.68h0c-.18,.61-.77,.86-1.31,.55Z"/>
        <path class="cls-11" d="M242.22,137.25l-5.51-3.18c-.54-.31-.83-1.06-.65-1.68h0c.18-.61,.77-.86,1.31-.55l5.51,3.18c.54,.31,.83,1.06,.65,1.68h0c-.18,.61-.77,.86-1.31,.55Z"/>
        <path class="cls-11" d="M274.44,150.41l-3.54-2.04c-.54-.31-.83-1.06-.65-1.68h0c.18-.61,.77-.86,1.31-.55l3.54,2.04c.54,.31,.83,1.06,.65,1.68h0c-.18,.61-.77,.86-1.31,.55Z"/>
        <path class="cls-11" d="M260.88,120.69l-9.74-5.63c-.54-.31-.83-1.06-.65-1.68h0c.18-.61,.77-.86,1.31-.55l9.74,5.63c.54,.31,.83,1.06,.65,1.68h0c-.18,.61-.77,.86-1.31,.55Z"/>
      </g>
      <path class="cls-9" d="M262.04,115.89l-16.98-9.8c-.54-.31-.83-1.06-.65-1.68h0c.18-.61,.77-.86,1.31-.55l16.98,9.8c.54,.31,.83,1.06,.65,1.68h0c-.18,.61-.77,.86-1.31,.55Z"/>
      <path class="cls-9" d="M252.02,121.04l-9.74-5.63c-.54-.31-.83-1.06-.65-1.68h0c.18-.61,.77-.86,1.31-.55l9.74,5.63c.54,.31,.83,1.06,.65,1.68h0c-.18,.61-.77,.86-1.31,.55Z"/>
      <path class="cls-9" d="M268.27,124.96l-3.54-2.04c-.54-.31-.83-1.06-.65-1.68h0c.18-.61,.77-.86,1.31-.55l3.54,2.04c.54,.31,.83,1.06,.65,1.68h0c-.18,.61-.77,.86-1.31,.55Z"/>
      <path class="cls-9" d="M304.29,123.88l-20.96-12.1c-.54-.31-.83-1.06-.65-1.68h0c.18-.61,.77-.86,1.31-.55l20.96,12.1c.54,.31,.83,1.06,.65,1.68h0c-.18,.61-.77,.86-1.31,.55Z"/>
      <path class="cls-10" d="M251.2,131.5l-11.71-6.76c-.54-.31-.83-1.06-.65-1.68h0c.18-.61,.77-.86,1.31-.55l11.71,6.76c.54,.31,.83,1.06,.65,1.68h0c-.18,.61-.77,.86-1.31,.55Z"/>
      <path class="cls-10" d="M252.97,94.26l-8.61-4.97c-.54-.31-.83-1.06-.65-1.68h0c.18-.61,.77-.86,1.31-.55l8.61,4.97c.54,.31,.83,1.06,.65,1.68h0c-.18,.61-.77,.86-1.31,.55Z"/>
      <path class="cls-9" d="M240.42,141.68l-9.97-5.76c-.54-.31-.83-1.06-.65-1.68h0c.18-.61,.77-.86,1.31-.55l9.97,5.76c.54,.31,.83,1.06,.65,1.68h0c-.18,.61-.77,.86-1.31,.55Z"/>
    </g>
    <g>
      <path class="cls-11" d="M306.64,113.1l-4.27-2.46c-.4-.23-.61-.78-.47-1.23h0c.13-.45,.56-.63,.96-.4l4.27,2.46c.4,.23,.61,.78,.47,1.23h0c-.13,.45-.56,.63-.96,.4Z"/>
      <path class="cls-11" d="M314.78,117.8l-4.27-2.46c-.4-.23-.61-.78-.47-1.23h0c.13-.45,.56-.63,.96-.4l4.27,2.46c.4,.23,.61,.78,.47,1.23h0c-.13,.45-.56,.63-.96,.4Z"/>
      <path class="cls-11" d="M322.92,122.5l-4.27-2.46c-.4-.23-.61-.78-.47-1.23h0c.13-.45,.56-.63,.96-.4l4.27,2.46c.4,.23,.61,.78,.47,1.23h0c-.13,.45-.56,.63-.96,.4Z"/>
      <path class="cls-10" d="M326.93,124.82l-.13-.08c-.4-.23-.61-.78-.47-1.23h0c.13-.45,.56-.63,.96-.4l.13,.08c.4,.23,.61,.78,.47,1.23h0c-.13,.45-.56,.63-.96,.4Z"/>
    </g>
    <path class="cls-15" d="M106.61,174.77c-2.7,0-5.4-.7-7.81-2.09h0l-28.59-16.51c-1.24-.72-1.98-2-1.98-3.43s.74-2.71,1.98-3.43l28.59-16.51c4.82-2.78,10.81-2.78,15.63,0l28.59,16.51c1.24,.72,1.98,2,1.98,3.43s-.74,2.71-1.98,3.43l-28.59,16.51c-2.41,1.39-5.11,2.09-7.81,2.09Zm-6.88-3.7c4.25,2.45,9.52,2.45,13.77,0l28.59-16.51c.66-.38,1.05-1.06,1.05-1.82s-.39-1.44-1.05-1.82l-28.59-16.51c-4.25-2.45-9.52-2.45-13.77,0l-28.59,16.51c-.66,.38-1.05,1.06-1.05,1.82s.39,1.44,1.05,1.82l28.59,16.51Z"/>
    <g>
      <path class="cls-29" d="M120.36,161.15c-7.67,4.43-20.11,4.43-27.78,0-7.67-4.43-7.67-11.61,0-16.04,7.67-4.43,20.11-4.43,27.78,0,7.67,4.43,7.67,11.61,0,16.04Z"/>
      <path class="cls-27" d="M135.58,72.32h-55.94l5.2,60.57h0c0,3.36,2.22,6.73,6.67,9.29,8.89,5.13,23.31,5.13,32.2,0,4.45-2.57,6.67-5.93,6.67-9.3l5.2-60.57Z"/>
      <path class="cls-8" d="M135.58,72.32h-55.94l.86,9.96c1.28,1.64,3.01,3.22,5.18,4.66,10.69,7.09,28.33,8.46,40.36,3.35l-1.86,44.3c-.08,1.93-.75,3.81-2,5.28-1.81,2.13-5.3,4.64-12.01,6.06,4.95-.32,9.75-1.57,13.54-3.76,4.45-2.57,6.67-5.93,6.67-9.3l4.17-48.57h0l1.03-11.99Z"/>
      <ellipse class="cls-8" cx="107.61" cy="72.32" rx="27.97" ry="16.15"/>
      <ellipse class="cls-8" cx="107.61" cy="66.62" rx="24.09" ry="13.91"/>
      <path class="cls-26" d="M137.24,71.56h0s0-.05,0-.05c0-.03,0-.06,0-.08l-.54-5.42-.02,.06c-.24-4.1-3.07-8.17-8.49-11.3-11.36-6.56-29.77-6.56-41.13,0-5.56,3.21-8.39,7.4-8.51,11.61h0s-.51,4.81-.51,4.81c-.01,.13-.03,.25-.04,.38v.08s0,0,0,0c-.31,4.6,2.58,9.26,8.66,12.77,11.58,6.69,30.36,6.69,41.94,0,6.12-3.53,9.01-8.23,8.66-12.86Z"/>
      <ellipse class="cls-21" cx="107.61" cy="66.62" rx="24.09" ry="13.91"/>
      <ellipse class="cls-1" cx="106.47" cy="66.62" rx="24.09" ry="13.91"/>
      <path class="cls-8" d="M93.43,58.86c9.41-5.43,24.66-5.43,34.07,0,.12,.07,.22,.14,.34,.22-.91-.81-1.97-1.58-3.19-2.29-9.41-5.43-24.66-5.43-34.07,0-9.29,5.36-9.39,14.01-.34,19.46-6.04-5.39-4.99-12.66,3.19-17.38Z"/>
      <path class="cls-28" d="M90.57,59.2c9.41-5.43,24.66-5.43,34.07,0,4.17,2.41,6.49,5.48,6.96,8.63,.59-3.95-1.73-8.02-6.96-11.04-9.41-5.43-24.66-5.43-34.07,0-5.24,3.02-7.55,7.09-6.96,11.04,.47-3.15,2.79-6.22,6.96-8.63Z"/>
      <path class="cls-23" d="M128.35,54.89c-11.34-6.68-29.82-6.84-41.28-.36-11.46,6.48-11.55,17.15-.21,23.83,11.34,6.68,29.82,6.84,41.28,.36,11.46-6.48,11.55-17.15,.21-23.83Zm-3.71,21.57c-3.14,1.81-6.94,3.01-10.95,3.61l-.44-1.44c-.18-.58-.71-.98-1.32-.98h-8.65c-.61,0-1.14,.4-1.32,.98l-.44,1.44c-4.01-.6-7.81-1.8-10.95-3.61-9.41-5.43-9.41-14.24,0-19.67,9.41-5.43,24.66-5.43,34.07,0,9.41,5.43,9.41,14.24,0,19.67Z"/>
      <g>
        <path class="cls-11" d="M124.65,55.76c-9.41-5.43-24.66-5.43-34.07,0-4.93,2.85-7.27,6.62-7.03,10.35,.22-3.39,2.56-6.74,7.03-9.32,9.41-5.43,24.66-5.43,34.07,0,4.48,2.59,6.82,5.93,7.04,9.32,.24-3.73-2.1-7.5-7.04-10.35Z"/>
        <path class="cls-11" d="M128.14,77.69c-11.46,6.48-29.94,6.32-41.28-.36-5.4-3.18-8.2-7.26-8.42-11.37-.22,4.45,2.58,8.95,8.42,12.4,11.34,6.68,29.82,6.84,41.28,.36,6-3.4,8.88-7.94,8.63-12.46-.21,4.17-3.08,8.3-8.63,11.43Z"/>
      </g>
      <path class="cls-13" d="M105.03,79.42h5.17c.36,0,.65,.29,.65,.65v.09c0,.36-.29,.65-.65,.65h-5.17c-.36,0-.65-.29-.65-.65v-.09c0-.36,.29-.65,.65-.65Z"/>
      <path class="cls-4" d="M110.2,79.42h-5.17c-.36,0-.65,.29-.65,.65v.09c0,.06,.02,.12,.04,.17,.08-.27,.32-.48,.62-.48h5.17c.3,0,.54,.2,.62,.48,.02-.06,.04-.11,.04-.17v-.09c0-.36-.29-.65-.65-.65Z"/>
      <g>
        <path class="cls-9" d="M108.4,126.66c-.63,2.39-3.08,3.8-5.47,3.17-2.39-.63-3.8-3.08-3.17-5.47,.63-2.39,2.88-3.06,5.27-2.43,2.39,.63,4,2.34,3.37,4.72Z"/>
        <path class="cls-9" d="M111.92,121.96c-.9,.88-2.05,.77-2.81-.02-.76-.78-.85-1.93,.05-2.81,.9-.88,2.61-1.31,3.37-.53,.76,.78,.29,2.48-.61,3.36Z"/>
        <path class="cls-9" d="M107.25,118.22c-.22,1.24-1.22,1.82-2.3,1.62-1.08-.19-1.82-1.08-1.6-2.32s1.36-2.59,2.44-2.39c1.08,.19,1.68,1.85,1.46,3.09Z"/>
        <path class="cls-9" d="M101.49,117.64c.48,1.16-.06,2.19-1.07,2.6-1.01,.42-2.11,.07-2.59-1.1-.48-1.16-.24-2.91,.77-3.33,1.01-.42,2.41,.66,2.89,1.82Z"/>
      </g>
    </g>
    <path class="cls-12" d="M109.44,80.12s15.64-5.24,9.31-23.21-18.66-23.45-13.7-37.82c0,0-7.78,11.64-.51,27.38s8.87,13.94,8.78,21.47c-.1,8.95-7.33,12.18-7.33,12.18h3.44Z"/>
    <path class="cls-12" d="M110.85,21.58s-1.63-10.75,8.46-21.58c0,0-8.92,19.92-6,29.75,0,0-2.36-6.25-2.46-8.17Z"/>
  </g>
</svg>